<svg width="168" height="22" viewBox="0 0 168 22" fill="none" xmlns="http://www.w3.org/2000/svg">
<path d="M11.6884 16.349L12.0488 16.6068L11.9124 16.1868L12.2728 15.9386H11.8345L11.6884 15.509L11.5423 15.9386H11.104L11.4644 16.1868L11.328 16.6068L11.6884 16.349Z" fill="white"/>
<path d="M13.2468 16.349L13.6072 16.6068L13.4708 16.1868L13.8312 15.9386H13.3929L13.2468 15.509L13.1007 15.9386H12.6624L13.0227 16.1868L12.8864 16.6068L13.2468 16.349Z" fill="white"/>
<path d="M14.8051 16.349L15.1655 16.6068L15.0291 16.1868L15.3895 15.9386H14.9512L14.8051 15.509L14.659 15.9386H14.2207L14.5811 16.1868L14.4447 16.6068L14.8051 16.349Z" fill="white"/>
<path d="M16.3637 16.349L16.7241 16.6068L16.5877 16.1868L16.9481 15.9386H16.5098L16.3637 15.509L16.2176 15.9386H15.7793L16.1397 16.1868L16.0033 16.6068L16.3637 16.349Z" fill="white"/>
<path d="M17.9221 16.349L18.2825 16.6068L18.1461 16.1868L18.5065 15.9386H18.0682L17.9221 15.509L17.776 15.9386H17.3376L17.698 16.1868L17.5617 16.6068L17.9221 16.349Z" fill="white"/>
<path d="M12.9299 19.1363V19.0522C13.014 18.9697 13.0888 18.8952 13.1543 18.8288C13.2197 18.7624 13.2747 18.7011 13.3191 18.6449C13.3635 18.5877 13.3974 18.5356 13.4208 18.4886C13.4442 18.4405 13.4558 18.3941 13.4558 18.3494C13.4558 18.2864 13.4383 18.2349 13.4032 18.1948C13.3682 18.1547 13.315 18.1346 13.2437 18.1346C13.1969 18.1346 13.1537 18.1478 13.114 18.1742C13.0742 18.1994 13.038 18.2303 13.0053 18.2669L12.9229 18.1862C12.9696 18.1358 13.0193 18.0957 13.0719 18.0659C13.1245 18.035 13.1876 18.0195 13.2612 18.0195C13.3653 18.0195 13.4471 18.0493 13.5067 18.1089C13.5663 18.1673 13.5961 18.2452 13.5961 18.3425C13.5961 18.3941 13.5844 18.4462 13.561 18.4989C13.5388 18.5504 13.5073 18.6043 13.4664 18.6604C13.4266 18.7154 13.3787 18.7732 13.3226 18.8339C13.2677 18.8935 13.2069 18.9571 13.1403 19.0247C13.1706 19.0224 13.2022 19.0201 13.2349 19.0178C13.2677 19.0155 13.2986 19.0144 13.3279 19.0144H13.6522V19.1363H12.9299ZM14.2379 19.157C14.1245 19.157 14.0363 19.1077 13.9732 19.0092C13.9101 18.9107 13.8785 18.7692 13.8785 18.5848C13.8785 18.4004 13.9101 18.2601 13.9732 18.1639C14.0363 18.0676 14.1245 18.0195 14.2379 18.0195C14.3501 18.0195 14.4378 18.0676 14.5009 18.1639C14.564 18.2601 14.5956 18.4004 14.5956 18.5848C14.5956 18.7692 14.564 18.9107 14.5009 19.0092C14.4378 19.1077 14.3501 19.157 14.2379 19.157ZM14.2379 19.0436C14.2707 19.0436 14.2999 19.035 14.3256 19.0178C14.3525 18.9995 14.3753 18.972 14.394 18.9353C14.4138 18.8975 14.429 18.85 14.4395 18.7927C14.4501 18.7343 14.4553 18.665 14.4553 18.5848C14.4553 18.5046 14.4501 18.4359 14.4395 18.3786C14.429 18.3214 14.4138 18.275 14.394 18.2395C14.3753 18.2028 14.3525 18.1759 14.3256 18.1587C14.2999 18.1415 14.2707 18.1329 14.2379 18.1329C14.2052 18.1329 14.1754 18.1415 14.1485 18.1587C14.1216 18.1759 14.0982 18.2028 14.0784 18.2395C14.0597 18.275 14.0451 18.3214 14.0345 18.3786C14.024 18.4359 14.0188 18.5046 14.0188 18.5848C14.0188 18.7452 14.0386 18.862 14.0784 18.9353C14.1193 19.0075 14.1725 19.0436 14.2379 19.0436ZM14.8815 19.1363V19.0195H15.1375V18.212H14.9341V18.1209C14.9855 18.1117 15.0299 18.1009 15.0673 18.0883C15.1059 18.0745 15.1404 18.0585 15.1708 18.0401H15.2812V19.0195H15.5127V19.1363H14.8815ZM16.0966 18.6037C16.134 18.6037 16.1732 18.5923 16.2141 18.5693C16.2561 18.5464 16.2953 18.5092 16.3315 18.4577C16.3222 18.35 16.2965 18.2687 16.2544 18.2137C16.2123 18.1587 16.1556 18.1312 16.0843 18.1312C16.0574 18.1312 16.0317 18.1369 16.0072 18.1484C15.9838 18.1598 15.9634 18.1765 15.9458 18.1982C15.9283 18.2188 15.9143 18.244 15.9037 18.2738C15.8944 18.3036 15.8897 18.3362 15.8897 18.3718C15.8897 18.4439 15.9067 18.5006 15.9406 18.5419C15.9745 18.5831 16.0265 18.6037 16.0966 18.6037ZM16.044 19.157C15.9844 19.157 15.9318 19.1461 15.8862 19.1243C15.8418 19.1026 15.8044 19.0751 15.774 19.0418L15.8547 18.9525C15.878 18.9788 15.9055 19 15.9371 19.0161C15.9698 19.0321 16.0037 19.0401 16.0387 19.0401C16.0785 19.0401 16.1159 19.0321 16.151 19.0161C16.186 19 16.217 18.9737 16.2439 18.937C16.2708 18.8992 16.2924 18.8506 16.3087 18.791C16.3251 18.7314 16.3339 18.6575 16.335 18.5693C16.3 18.6129 16.2591 18.6472 16.2123 18.6724C16.1656 18.6976 16.1188 18.7102 16.0721 18.7102C15.975 18.7102 15.8979 18.6822 15.8406 18.626C15.7834 18.5699 15.7547 18.4852 15.7547 18.3718C15.7547 18.3191 15.7635 18.2715 15.781 18.2291C15.7985 18.1856 15.8219 18.1484 15.8511 18.1175C15.8815 18.0865 15.9166 18.0625 15.9563 18.0453C15.9972 18.0281 16.0399 18.0195 16.0843 18.0195C16.1393 18.0195 16.1901 18.0304 16.2369 18.0522C16.2848 18.0739 16.3257 18.1072 16.3596 18.1518C16.3947 18.1954 16.4215 18.2503 16.4402 18.3168C16.4601 18.3821 16.47 18.4588 16.47 18.547C16.47 18.657 16.4584 18.7509 16.435 18.8288C16.4116 18.9055 16.38 18.9685 16.3403 19.0178C16.3006 19.0659 16.255 19.1014 16.2035 19.1243C16.1533 19.1461 16.1001 19.157 16.044 19.157Z" fill="white"/>
<path d="M11.8246 5.99994H12.4353C12.5346 5.99994 12.6252 6.00853 12.707 6.02571C12.7908 6.04099 12.8629 6.06676 12.9233 6.10303C12.9856 6.13739 13.0333 6.18417 13.0664 6.24335C13.1015 6.30253 13.119 6.37508 13.119 6.46099C13.119 6.55071 13.0918 6.63376 13.0372 6.71012C12.9846 6.78649 12.9028 6.83899 12.7918 6.86762V6.87908C12.9301 6.90199 13.0353 6.95067 13.1074 7.02512C13.1814 7.09767 13.2184 7.19694 13.2184 7.32294C13.2184 7.41648 13.1999 7.49762 13.1629 7.56635C13.1259 7.63508 13.0742 7.69235 13.008 7.73817C12.9437 7.78398 12.8668 7.81835 12.7772 7.84126C12.6875 7.86226 12.5901 7.87276 12.4849 7.87276H11.8246V5.99994ZM12.4061 6.77599C12.5405 6.77599 12.6369 6.75212 12.6953 6.70439C12.7557 6.65667 12.7859 6.58889 12.7859 6.50108C12.7859 6.41517 12.7548 6.35312 12.6924 6.31494C12.6301 6.27676 12.5366 6.25767 12.4119 6.25767H12.1635V6.77599H12.4061ZM12.4499 7.61503C12.5901 7.61503 12.6983 7.58926 12.7742 7.53771C12.8502 7.48617 12.8882 7.40694 12.8882 7.30003C12.8882 7.20267 12.8512 7.13108 12.7772 7.08526C12.7031 7.03753 12.594 7.01367 12.4499 7.01367H12.1635V7.61503H12.4499ZM13.5681 5.99994H14.7194V6.28058H13.9071V6.7588H14.5938V7.03944H13.9071V7.59212H14.7486V7.87276H13.5681V5.99994ZM15.2076 7.40599C15.2758 7.46899 15.3537 7.52053 15.4414 7.56062C15.5291 7.5988 15.6167 7.61789 15.7044 7.61789C15.8135 7.61789 15.8963 7.59594 15.9528 7.55203C16.0093 7.50812 16.0375 7.44989 16.0375 7.37735C16.0375 7.33917 16.0297 7.30671 16.0141 7.27999C16.0005 7.25326 15.98 7.23035 15.9528 7.21126C15.9274 7.19026 15.8963 7.17117 15.8593 7.15399C15.8242 7.1368 15.7852 7.11962 15.7424 7.10244L15.4794 6.99076C15.4326 6.97167 15.3859 6.9478 15.3391 6.91917C15.2943 6.89053 15.2534 6.85617 15.2164 6.81608C15.1794 6.77599 15.1492 6.72921 15.1258 6.67576C15.1044 6.6223 15.0937 6.56121 15.0937 6.49249C15.0937 6.41803 15.1093 6.3493 15.1404 6.2863C15.1736 6.22139 15.2184 6.16508 15.2749 6.11735C15.3313 6.06962 15.3986 6.03239 15.4765 6.00567C15.5563 5.97894 15.643 5.96558 15.7365 5.96558C15.8476 5.96558 15.9547 5.98753 16.058 6.03144C16.1612 6.07344 16.2499 6.13071 16.3239 6.20326L16.1515 6.41517C16.0891 6.36553 16.0249 6.32639 15.9586 6.29776C15.8924 6.26912 15.8184 6.2548 15.7365 6.2548C15.645 6.2548 15.5719 6.27485 15.5174 6.31494C15.4628 6.35312 15.4356 6.40658 15.4356 6.4753C15.4356 6.51158 15.4434 6.54308 15.4589 6.5698C15.4765 6.59462 15.4989 6.61753 15.5262 6.63853C15.5554 6.65762 15.5885 6.67576 15.6255 6.69294C15.6625 6.70821 15.7005 6.72349 15.7395 6.73876L15.9995 6.84471C16.056 6.86762 16.1076 6.89435 16.1544 6.92489C16.2012 6.95544 16.2411 6.99076 16.2742 7.03085C16.3093 7.07094 16.3365 7.11771 16.356 7.17117C16.3755 7.22271 16.3852 7.28285 16.3852 7.35158C16.3852 7.42794 16.3697 7.49953 16.3385 7.56635C16.3073 7.63317 16.2615 7.69235 16.2012 7.74389C16.1427 7.79353 16.0706 7.83362 15.9849 7.86417C15.9012 7.8928 15.8057 7.90712 15.6986 7.90712C15.57 7.90712 15.4453 7.88326 15.3245 7.83553C15.2057 7.7878 15.1005 7.72003 15.0089 7.63221L15.2076 7.40599ZM17.0614 6.28058H16.5091V5.99994H17.9526V6.28058H17.4003V7.87276H17.0614V6.28058ZM9.81421 9.24539H10.1882L10.533 10.1675L10.6587 10.5226H10.6704L10.7931 10.1675L11.1321 9.24539H11.5061V11.1182H11.1876V10.262C11.1876 10.2181 11.1886 10.1703 11.1905 10.1188C11.1944 10.0673 11.1983 10.0157 11.2022 9.96417C11.2061 9.91071 11.211 9.85917 11.2168 9.80953C11.2227 9.75799 11.2275 9.71026 11.2314 9.66635H11.2197L11.0649 10.093L10.7347 10.9435H10.5769L10.2467 10.093L10.0947 9.66635H10.083C10.0869 9.71026 10.0908 9.75799 10.0947 9.80953C10.1006 9.85917 10.1054 9.91071 10.1093 9.96417C10.1152 10.0157 10.1191 10.0673 10.121 10.1188C10.1249 10.1703 10.1269 10.2181 10.1269 10.262V11.1182H9.81421V9.24539ZM12.8038 10.3508L12.7366 10.1217C12.7054 10.0224 12.6753 9.92026 12.646 9.81526C12.6188 9.71026 12.5915 9.60621 12.5642 9.50312H12.5525C12.5253 9.60812 12.498 9.71312 12.4707 9.81812C12.4434 9.92121 12.4142 10.0224 12.383 10.1217L12.3158 10.3508H12.8038ZM12.8798 10.6113H12.2369L12.0879 11.1182H11.7431L12.3655 9.24539H12.7629L13.3853 11.1182H13.0288L12.8798 10.6113ZM13.9599 10.1217H14.2316C14.3621 10.1217 14.4615 10.0949 14.5297 10.0415C14.5998 9.98803 14.6349 9.90785 14.6349 9.80094C14.6349 9.69212 14.5998 9.61671 14.5297 9.57471C14.4615 9.53271 14.3621 9.51171 14.2316 9.51171H13.9599V10.1217ZM14.6641 11.1182L14.2521 10.3851H13.9599V11.1182H13.6209V9.24539H14.2667C14.366 9.24539 14.4586 9.25494 14.5443 9.27403C14.63 9.29312 14.704 9.32462 14.7664 9.36853C14.8287 9.41053 14.8774 9.46685 14.9125 9.53749C14.9495 9.60812 14.968 9.69594 14.968 9.80094C14.968 9.94412 14.9329 10.0596 14.8628 10.1474C14.7946 10.2353 14.703 10.2983 14.5881 10.3364L15.0439 11.1182H14.6641ZM15.3702 9.24539H15.7091V10.0959H15.7179L16.3987 9.24539H16.7757L16.1883 9.97562L16.875 11.1182H16.501L15.9838 10.2362L15.7091 10.5713V11.1182H15.3702V9.24539ZM17.1137 9.24539H18.265V9.52603H17.4527V10.0043H18.1393V10.2849H17.4527V10.8376H18.2942V11.1182H17.1137V9.24539ZM19.0717 9.52603H18.5195V9.24539H19.963V9.52603H19.4107V11.1182H19.0717V9.52603ZM11.0213 12.4908H11.6641C11.7693 12.4908 11.8658 12.5004 11.9534 12.5195C12.043 12.5386 12.12 12.571 12.1843 12.6168C12.2486 12.6627 12.2992 12.7228 12.3362 12.7973C12.3732 12.8698 12.3917 12.9605 12.3917 13.0693C12.3917 13.1724 12.3732 13.2621 12.3362 13.3385C12.2992 13.4148 12.2476 13.4788 12.1813 13.5303C12.1171 13.58 12.0401 13.6172 11.9505 13.642C11.8628 13.6649 11.7674 13.6764 11.6641 13.6764H11.3602V14.3637H11.0213V12.4908ZM11.6378 13.4101C11.9184 13.4101 12.0586 13.2965 12.0586 13.0693C12.0586 12.9509 12.0236 12.8698 11.9534 12.8259C11.8833 12.7801 11.7781 12.7572 11.6378 12.7572H11.3602V13.4101H11.6378ZM12.7505 12.4908H13.0895V14.083H13.8843V14.3637H12.7505V12.4908ZM15.0296 13.5962L14.9624 13.3671C14.9313 13.2678 14.9011 13.1657 14.8718 13.0607C14.8446 12.9557 14.8173 12.8517 14.79 12.7486H14.7783C14.7511 12.8536 14.7238 12.9586 14.6965 13.0636C14.6692 13.1667 14.64 13.2678 14.6089 13.3671L14.5416 13.5962H15.0296ZM15.1056 13.8568H14.4627L14.3137 14.3637H13.9689L14.5913 12.4908H14.9887L15.6111 14.3637H15.2546L15.1056 13.8568ZM15.7188 13.433C15.7188 13.2803 15.7412 13.1438 15.786 13.0235C15.8328 12.9013 15.8961 12.7982 15.976 12.7142C16.0558 12.6302 16.1493 12.5663 16.2565 12.5223C16.3636 12.4784 16.4786 12.4565 16.6013 12.4565C16.7182 12.4565 16.8224 12.4803 16.9139 12.5281C17.0075 12.5758 17.0844 12.6312 17.1448 12.6942L16.9549 12.9003C16.9062 12.8526 16.8536 12.8154 16.7971 12.7887C16.7425 12.76 16.6782 12.7457 16.6042 12.7457C16.5243 12.7457 16.4513 12.7619 16.385 12.7944C16.3208 12.8249 16.2643 12.8698 16.2156 12.929C16.1688 12.9863 16.1318 13.0569 16.1045 13.1409C16.0792 13.2249 16.0665 13.3194 16.0665 13.4244C16.0665 13.6382 16.1133 13.8062 16.2068 13.9284C16.3023 14.0487 16.4308 14.1088 16.5925 14.1088C16.6782 14.1088 16.7523 14.0926 16.8146 14.0601C16.8789 14.0277 16.9383 13.9818 16.9928 13.9227L17.1828 14.126C17.1049 14.2138 17.0162 14.2816 16.9169 14.3293C16.8175 14.3751 16.7075 14.398 16.5867 14.398C16.4639 14.398 16.35 14.377 16.2448 14.335C16.1396 14.293 16.048 14.231 15.9701 14.1489C15.8922 14.0668 15.8308 13.9656 15.786 13.8453C15.7412 13.7251 15.7188 13.5876 15.7188 13.433ZM17.5018 12.4908H18.6531V12.7715H17.8407V13.2497H18.5274V13.5303H17.8407V14.083H18.6823V14.3637H17.5018V12.4908Z" fill="white"/>
<path d="M15.7524 3.76079C15.7294 3.74153 15.6969 3.73748 15.6697 3.75047L15.2533 3.94913L14.8626 3.50765C14.8481 3.49131 14.8271 3.48193 14.8051 3.48193C14.783 3.48193 14.7621 3.49131 14.7476 3.50765L14.3569 3.94913L13.9405 3.75047C13.9132 3.73748 13.8808 3.74153 13.8578 3.76079C13.8347 3.78004 13.8255 3.81083 13.8343 3.8392L14.1235 4.77137C14.1333 4.8028 14.1628 4.82425 14.1963 4.82425H15.4138C15.4474 4.82425 15.4769 4.8028 15.4866 4.77139L15.7758 3.8392C15.7846 3.81083 15.7754 3.78004 15.7524 3.76079ZM15.3575 4.67512H14.2527L14.0307 3.9594L14.3428 4.10829C14.3738 4.12306 14.411 4.1156 14.4336 4.09009L14.8051 3.67032L15.1766 4.09009C15.1992 4.11562 15.2364 4.12306 15.2674 4.10829L15.5795 3.9594L15.3575 4.67512Z" fill="white"/>
<path d="M22.4025 20.0909C22.2814 19.4967 22.2895 19.1734 22.4025 18.7546C22.6897 17.9485 23.0419 17.664 23.7662 17.2273C23.8577 17.8387 23.8297 18.1718 23.6688 18.7546C23.5242 19.1649 23.3409 19.3946 22.9869 19.8046L22.4025 20.0909Z" fill="#F2CB45"/>
<path d="M24.6383 18.4496C24.3582 17.9094 24.2772 17.5959 24.2708 17.1627C24.3255 16.3106 24.5865 15.9436 25.1639 15.3318C25.4203 15.8964 25.4848 16.2246 25.4902 16.8283C25.4639 17.2616 25.3504 17.5313 25.1222 18.0195L24.6383 18.4496Z" fill="#F2CB45"/>
<path d="M26.1438 16.0032C25.7243 15.5579 25.5593 15.2779 25.4329 14.8628C25.2492 14.0282 25.3984 13.6054 25.7842 12.8628C26.1876 13.3378 26.3407 13.6364 26.5135 14.2159C26.6086 14.6399 26.5741 14.9296 26.4901 15.4602L26.1438 16.0032Z" fill="#F2CB45"/>
<path d="M27.1013 13.3981C26.5482 13.1271 26.2928 12.9223 26.0248 12.5779C25.5516 11.861 25.5386 11.4138 25.6313 10.5854C26.1801 10.8899 26.4312 11.116 26.8019 11.5982C27.0438 11.9618 27.1163 12.2447 27.2293 12.7702L27.1013 13.3981Z" fill="#F2CB45"/>
<path d="M27.0991 10.9138C26.5165 10.711 26.2373 10.5383 25.9284 10.2285C25.3695 9.57366 25.3009 9.1314 25.2898 8.2981C25.8723 8.53463 26.1497 8.72904 26.5777 9.16322C26.863 9.49523 26.9704 9.76733 27.1478 10.2753L27.0991 10.9138Z" fill="#F2CB45"/>
<path d="M26.6183 8.21016C26.001 8.1774 25.6834 8.08925 25.2975 7.87794C24.5721 7.40502 24.3786 6.99991 24.127 6.20386C24.754 6.26898 25.0762 6.37841 25.6123 6.67597C25.9819 6.91516 26.1634 7.14637 26.4806 7.5842L26.6183 8.21016Z" fill="#F2CB45"/>
<path d="M25.5207 5.724C24.9108 5.82352 24.5812 5.8051 24.1577 5.68099C23.345 5.37384 23.066 5.01965 22.644 4.29618C23.2705 4.22621 23.6093 4.26441 24.1986 4.44073C24.6124 4.59546 24.8407 4.78252 25.2474 5.14236L25.5207 5.724Z" fill="#F2CB45"/>
<path d="M23.7399 3.37657C23.122 3.39977 22.7975 3.3407 22.3934 3.16516C21.6267 2.75981 21.3956 2.37394 21.0703 1.604C21.7009 1.61218 22.0319 1.69202 22.5937 1.93987C22.9936 2.12581 23.2262 2.30816 23.5437 2.76575C23.6528 2.93987 23.6875 3.09019 23.7399 3.37657Z" fill="#F2CB45"/>
<path d="M22.2466 20.477C22.7373 20.1083 23.0369 19.9728 23.4703 19.8873C24.3351 19.7841 24.751 19.9684 25.4704 20.4126C24.9511 20.7629 24.6337 20.8851 24.029 21.0008C23.3784 21.0905 23.0659 21.0342 22.7667 20.8645C22.5253 20.7154 22.4089 20.6306 22.2466 20.477Z" fill="#F2CB45"/>
<path d="M24.5842 18.759C25.0749 18.3902 25.3746 18.2548 25.808 18.1693C26.6727 18.0661 27.0886 18.2504 27.8081 18.6946C27.2887 19.0449 26.9714 19.1672 26.3667 19.2829C25.716 19.3726 25.4036 19.3163 25.1044 19.1466C24.863 18.9974 24.7465 18.9126 24.5842 18.759Z" fill="#F2CB45"/>
<path d="M26.1765 16.59C26.4171 16.0317 26.6092 15.7688 26.9427 15.4846C27.6424 14.9759 28.0969 14.9345 28.9464 14.9721C28.6716 15.5283 28.4573 15.7883 27.9901 16.1818C27.4698 16.575 27.1698 16.6775 26.824 16.6749C26.539 16.6622 26.3949 16.6449 26.1765 16.59Z" fill="#F2CB45"/>
<path d="M27.1572 13.9301C27.3092 13.3427 27.4588 13.0544 27.745 12.7242C28.3586 12.1181 28.8016 12.0102 29.6472 11.9221C29.4608 12.5125 29.289 12.8011 28.8875 13.2591C28.4334 13.7245 28.1527 13.8701 27.8104 13.9185C27.5268 13.948 27.3816 13.9522 27.1572 13.9301Z" fill="#F2CB45"/>
<path d="M27.3602 11.3102C27.2669 10.7111 27.2901 10.3885 27.4226 9.97519C27.7469 9.18278 28.112 8.91433 28.8558 8.5105C28.9189 9.12538 28.8752 9.45682 28.6874 10.0318C28.4543 10.6338 28.2534 10.875 27.9575 11.0502C27.7078 11.1857 27.5757 11.2449 27.3602 11.3102Z" fill="#F2CB45"/>
<path d="M27.0774 8.63985C26.8547 8.07446 26.8066 7.75451 26.8454 7.32298C26.9882 6.48077 27.286 6.14167 27.9238 5.59058C28.1202 6.17783 28.1504 6.5107 28.0931 7.11182C27.9973 7.74882 27.8541 8.02677 27.6036 8.26021C27.3895 8.44509 27.2736 8.53067 27.0774 8.63985Z" fill="#F2CB45"/>
<path d="M26.1338 6.09055C25.7528 5.61328 25.6115 5.32096 25.5202 4.89716C25.4064 4.05069 25.5903 3.64126 26.0366 2.93188C26.3989 3.43755 26.5269 3.74733 26.6508 4.33873C26.7488 4.97543 26.6944 5.2822 26.5242 5.57708C26.3744 5.81511 26.2889 5.93009 26.1338 6.09055Z" fill="#F2CB45"/>
<path d="M24.8753 4.34306C24.4384 3.91437 24.2621 3.64087 24.1191 3.23099C23.9019 2.40417 24.0341 1.97599 24.3897 1.21899C24.8118 1.67807 24.977 1.97046 25.1728 2.54286C25.3485 3.16333 25.3323 3.47429 25.1996 3.78717C25.0802 4.04115 25.0095 4.16541 24.8753 4.34306Z" fill="#F2CB45"/>
<path d="M7.486 20.0909C7.60713 19.4967 7.59895 19.1734 7.486 18.7546C7.1989 17.9485 6.84665 17.664 6.12237 17.2273C6.03085 17.8387 6.05892 18.1718 6.21977 18.7546C6.36426 19.1649 6.54769 19.3946 6.90159 19.8046L7.486 20.0909Z" fill="#F2CB45"/>
<path d="M5.25028 18.4496C5.53035 17.9094 5.61141 17.5959 5.6178 17.1627C5.563 16.3106 5.30204 15.9436 4.72466 15.3318C4.46837 15.8964 4.40381 16.2246 4.39844 16.8283C4.42472 17.2616 4.53819 17.5313 4.76625 18.0195L5.25028 18.4496Z" fill="#F2CB45"/>
<path d="M3.74497 16.0032C4.16444 15.5579 4.32944 15.2779 4.45583 14.8628C4.63961 14.0282 4.49033 13.6054 4.10454 12.8628C3.7012 13.3378 3.548 13.6364 3.37525 14.2159C3.28028 14.6399 3.31463 14.9296 3.39857 15.4602L3.74497 16.0032Z" fill="#F2CB45"/>
<path d="M2.78765 13.3981C3.34073 13.1271 3.59617 12.9223 3.86425 12.5779C4.33743 11.861 4.35042 11.4138 4.25769 10.5854C3.70895 10.8899 3.45788 11.116 3.08709 11.5982C2.84516 11.9618 2.77269 12.2447 2.65967 12.7702L2.78765 13.3981Z" fill="#F2CB45"/>
<path d="M2.78954 10.9138C3.37224 10.711 3.65128 10.5383 3.96024 10.2285C4.51916 9.57366 4.58777 9.1314 4.59891 8.2981C4.01635 8.53463 3.73898 8.72904 3.31092 9.16322C3.02551 9.49523 2.91835 9.76733 2.74072 10.2753L2.78954 10.9138Z" fill="#F2CB45"/>
<path d="M3.27026 8.21016C3.88774 8.1774 4.20525 8.08925 4.5911 7.87794C5.31644 7.40502 5.51008 6.99991 5.76163 6.20386C5.13455 6.26898 4.81236 6.37841 4.27632 6.67597C3.90663 6.91516 3.72521 7.14637 3.40803 7.5842L3.27026 8.21016Z" fill="#F2CB45"/>
<path d="M4.36792 5.724C4.97787 5.82352 5.30737 5.8051 5.73083 5.68099C6.54372 5.37384 6.82254 5.01965 7.24459 4.29618C6.61805 4.22621 6.27931 4.26441 5.69008 4.44073C5.27622 4.59546 5.04785 4.78252 4.64115 5.14236L4.36792 5.724Z" fill="#F2CB45"/>
<path d="M6.14893 3.37657C6.76683 3.39977 7.0913 3.3407 7.49538 3.16516C8.26213 2.75981 8.49308 2.37394 8.81848 1.604C8.18793 1.61218 7.85682 1.69202 7.29506 1.93987C6.89517 2.12581 6.66249 2.30816 6.345 2.76575C6.23581 2.93987 6.20123 3.09019 6.14893 3.37657Z" fill="#F2CB45"/>
<path d="M7.64214 20.477C7.15143 20.1083 6.85176 19.9728 6.41843 19.8873C5.55362 19.7841 5.13767 19.9684 4.41821 20.4126C4.93772 20.7629 5.25508 20.8851 5.85971 21.0008C6.51034 21.0905 6.82283 21.0342 7.12205 20.8645C7.36345 20.7154 7.47993 20.6306 7.64214 20.477Z" fill="#F2CB45"/>
<path d="M5.3045 18.759C4.81378 18.3902 4.51411 18.2548 4.08079 18.1693C3.21597 18.0661 2.80002 18.2504 2.08057 18.6946C2.60007 19.0449 2.91743 19.1672 3.52207 19.2829C4.1727 19.3726 4.48518 19.3163 4.7844 19.1466C5.02581 18.9974 5.14228 18.9126 5.3045 18.759Z" fill="#F2CB45"/>
<path d="M3.71206 16.59C3.47153 16.0317 3.27939 15.7688 2.94583 15.4846C2.24615 14.9759 1.79164 14.9345 0.942139 14.9721C1.21701 15.5283 1.43118 15.7883 1.8984 16.1818C2.41872 16.575 2.71872 16.6775 3.06445 16.6749C3.3495 16.6622 3.49358 16.6449 3.71206 16.59Z" fill="#F2CB45"/>
<path d="M2.73142 13.9301C2.57933 13.3427 2.42976 13.0544 2.14365 12.7242C1.53004 12.1181 1.08706 12.0102 0.241455 11.9221C0.4278 12.5125 0.599604 12.8011 1.00108 13.2591C1.4551 13.7245 1.73596 13.8701 2.07812 13.9185C2.36189 13.948 2.50698 13.9522 2.73142 13.9301Z" fill="#F2CB45"/>
<path d="M2.52815 11.3102C2.62149 10.7111 2.59828 10.3885 2.46593 9.97519C2.1416 9.18278 1.77648 8.91433 1.03262 8.5105C0.969666 9.12538 1.01321 9.45682 1.20103 10.0318C1.43427 10.6338 1.63512 10.875 1.93102 11.0502C2.18068 11.1857 2.31266 11.2449 2.52815 11.3102Z" fill="#F2CB45"/>
<path d="M2.81136 8.63985C3.03391 8.07446 3.08199 7.75451 3.04341 7.32298C2.90047 6.48077 2.60274 6.14167 1.96485 5.59058C1.76851 6.17783 1.73834 6.5107 1.79564 7.11182C1.8914 7.74882 2.03463 8.02677 2.28519 8.26021C2.4993 8.44509 2.61523 8.53067 2.81136 8.63985Z" fill="#F2CB45"/>
<path d="M3.75504 6.09055C4.1361 5.61328 4.27725 5.32096 4.3687 4.89716C4.48246 4.05069 4.29855 3.64126 3.85227 2.93188C3.48977 3.43755 3.3619 3.74733 3.23793 4.33873C3.14006 4.97543 3.19441 5.2822 3.36465 5.57708C3.51448 5.81511 3.59992 5.93009 3.75504 6.09055Z" fill="#F2CB45"/>
<path d="M5.01322 4.34306C5.45026 3.91437 5.62641 3.64087 5.76939 3.23099C5.9866 2.40417 5.85446 1.97599 5.49885 1.21899C5.0767 1.67807 4.91161 1.97046 4.71569 2.54286C4.54009 3.16333 4.55624 3.47429 4.68893 3.78717C4.80832 4.04115 4.87898 4.16541 5.01322 4.34306Z" fill="#F2CB45"/>
<path d="M57.078 16.08L57.4504 16.35L57.3095 15.91L57.6819 15.65H57.229L57.078 15.2L56.927 15.65H56.4741L56.8465 15.91L56.7056 16.35L57.078 16.08Z" fill="white"/>
<path d="M58.6884 16.08L59.0608 16.35L58.9199 15.91L59.2923 15.65H58.8393L58.6884 15.2L58.5374 15.65H58.0845L58.4569 15.91L58.316 16.35L58.6884 16.08Z" fill="white"/>
<path d="M60.2987 16.08L60.6711 16.35L60.5302 15.91L60.9026 15.65H60.4497L60.2987 15.2L60.1477 15.65H59.6948L60.0672 15.91L59.9263 16.35L60.2987 16.08Z" fill="white"/>
<path d="M61.9091 16.08L62.2815 16.35L62.1406 15.91L62.513 15.65H62.06L61.9091 15.2L61.7581 15.65H61.3052L61.6776 15.91L61.5367 16.35L61.9091 16.08Z" fill="white"/>
<path d="M63.5194 16.08L63.8918 16.35L63.7509 15.91L64.1233 15.65H63.6704L63.5194 15.2L63.3685 15.65H62.9155L63.2879 15.91L63.147 16.35L63.5194 16.08Z" fill="white"/>
<path d="M58.3608 19.0001V18.9119C58.4477 18.8255 58.525 18.7475 58.5927 18.6779C58.6603 18.6083 58.7171 18.5441 58.763 18.4853C58.8089 18.4253 58.8439 18.3707 58.868 18.3215C58.8922 18.2711 58.9043 18.2225 58.9043 18.1757C58.9043 18.1097 58.8862 18.0557 58.8499 18.0137C58.8137 17.9717 58.7587 17.9507 58.6851 17.9507C58.6367 17.9507 58.5921 17.9645 58.551 17.9921C58.5099 18.0185 58.4725 18.0509 58.4387 18.0893L58.3535 18.0047C58.4018 17.9519 58.4532 17.9099 58.5075 17.8787C58.5619 17.8463 58.6271 17.8301 58.7032 17.8301C58.8107 17.8301 58.8952 17.8613 58.9568 17.9237C59.0184 17.9849 59.0492 18.0665 59.0492 18.1685C59.0492 18.2225 59.0371 18.2771 59.013 18.3323C58.99 18.3863 58.9574 18.4427 58.9151 18.5015C58.8741 18.5591 58.8246 18.6197 58.7666 18.6833C58.7098 18.7457 58.647 18.8123 58.5782 18.8831C58.6096 18.8807 58.6422 18.8783 58.676 18.8759C58.7098 18.8735 58.7418 18.8723 58.772 18.8723H59.1072V19.0001H58.3608ZM59.7124 19.0217C59.5953 19.0217 59.5041 18.9701 59.4389 18.8669C59.3736 18.7637 59.341 18.6155 59.341 18.4223C59.341 18.2291 59.3736 18.0821 59.4389 17.9813C59.5041 17.8805 59.5953 17.8301 59.7124 17.8301C59.8284 17.8301 59.919 17.8805 59.9842 17.9813C60.0494 18.0821 60.082 18.2291 60.082 18.4223C60.082 18.6155 60.0494 18.7637 59.9842 18.8669C59.919 18.9701 59.8284 19.0217 59.7124 19.0217ZM59.7124 18.9029C59.7462 18.9029 59.7764 18.8939 59.803 18.8759C59.8308 18.8567 59.8543 18.8279 59.8737 18.7895C59.8942 18.7499 59.9099 18.7001 59.9208 18.6401C59.9316 18.5789 59.9371 18.5063 59.9371 18.4223C59.9371 18.3383 59.9316 18.2663 59.9208 18.2063C59.9099 18.1463 59.8942 18.0977 59.8737 18.0605C59.8543 18.0221 59.8308 17.9939 59.803 17.9759C59.7764 17.9579 59.7462 17.9489 59.7124 17.9489C59.6786 17.9489 59.6478 17.9579 59.62 17.9759C59.5922 17.9939 59.5681 18.0221 59.5476 18.0605C59.5282 18.0977 59.5131 18.1463 59.5023 18.2063C59.4914 18.2663 59.486 18.3383 59.486 18.4223C59.486 18.5903 59.5065 18.7127 59.5476 18.7895C59.5898 18.8651 59.6448 18.9029 59.7124 18.9029ZM60.3774 19.0001V18.8777H60.6419V18.0317H60.4318V17.9363C60.4849 17.9267 60.5308 17.9153 60.5695 17.9021C60.6093 17.8877 60.645 17.8709 60.6764 17.8517H60.7905V18.8777H61.0296V19.0001H60.3774ZM61.6331 18.4421C61.6717 18.4421 61.7122 18.4301 61.7544 18.4061C61.7979 18.3821 61.8384 18.3431 61.8758 18.2891C61.8662 18.1763 61.8396 18.0911 61.7961 18.0335C61.7526 17.9759 61.694 17.9471 61.6204 17.9471C61.5926 17.9471 61.566 17.9531 61.5407 17.9651C61.5165 17.9771 61.4954 17.9945 61.4772 18.0173C61.4591 18.0389 61.4446 18.0653 61.4338 18.0965C61.4241 18.1277 61.4193 18.1619 61.4193 18.1991C61.4193 18.2747 61.4368 18.3341 61.4718 18.3773C61.5068 18.4205 61.5606 18.4421 61.6331 18.4421ZM61.5787 19.0217C61.5171 19.0217 61.4628 19.0103 61.4157 18.9875C61.3698 18.9647 61.3311 18.9359 61.2997 18.9011L61.383 18.8075C61.4072 18.8351 61.4356 18.8573 61.4682 18.8741C61.502 18.8909 61.537 18.8993 61.5733 18.8993C61.6143 18.8993 61.653 18.8909 61.6892 18.8741C61.7255 18.8573 61.7575 18.8297 61.7852 18.7913C61.813 18.7517 61.8354 18.7007 61.8523 18.6383C61.8692 18.5759 61.8782 18.4985 61.8794 18.4061C61.8432 18.4517 61.8009 18.4877 61.7526 18.5141C61.7043 18.5405 61.656 18.5537 61.6077 18.5537C61.5074 18.5537 61.4277 18.5243 61.3685 18.4655C61.3094 18.4067 61.2798 18.3179 61.2798 18.1991C61.2798 18.1439 61.2888 18.0941 61.3069 18.0497C61.3251 18.0041 61.3492 17.9651 61.3794 17.9327C61.4108 17.9003 61.4471 17.8751 61.4881 17.8571C61.5304 17.8391 61.5745 17.8301 61.6204 17.8301C61.6771 17.8301 61.7297 17.8415 61.778 17.8643C61.8275 17.8871 61.8698 17.9219 61.9048 17.9687C61.941 18.0143 61.9688 18.0719 61.9881 18.1415C62.0087 18.2099 62.0189 18.2903 62.0189 18.3827C62.0189 18.4979 62.0069 18.5963 61.9827 18.6779C61.9586 18.7583 61.9259 18.8243 61.8849 18.8759C61.8438 18.9263 61.7967 18.9635 61.7436 18.9875C61.6916 19.0103 61.6367 19.0217 61.5787 19.0217Z" fill="white"/>
<path d="M57.2187 5.2379H57.8498C57.9525 5.2379 58.0461 5.2469 58.1306 5.2649C58.2172 5.2809 58.2916 5.3079 58.354 5.3459C58.4185 5.3819 58.4678 5.4309 58.502 5.4929C58.5382 5.5549 58.5563 5.6309 58.5563 5.7209C58.5563 5.8149 58.5282 5.9019 58.4718 5.9819C58.4175 6.0619 58.3329 6.1169 58.2182 6.1469V6.1589C58.3611 6.1829 58.4698 6.2339 58.5443 6.3119C58.6208 6.3879 58.659 6.4919 58.659 6.6239C58.659 6.7219 58.6399 6.8069 58.6016 6.8789C58.5634 6.9509 58.5101 7.0109 58.4416 7.0589C58.3752 7.1069 58.2957 7.1429 58.2031 7.1669C58.1105 7.1889 58.0098 7.1999 57.9011 7.1999H57.2187V5.2379ZM57.8196 6.0509C57.9585 6.0509 58.0581 6.0259 58.1185 5.9759C58.1809 5.9259 58.2121 5.8549 58.2121 5.7629C58.2121 5.6729 58.1799 5.6079 58.1155 5.5679C58.0511 5.5279 57.9545 5.5079 57.8256 5.5079H57.569V6.0509H57.8196ZM57.8649 6.9299C58.0098 6.9299 58.1215 6.9029 58.2001 6.8489C58.2786 6.7949 58.3178 6.7119 58.3178 6.5999C58.3178 6.4979 58.2796 6.4229 58.2031 6.3749C58.1266 6.3249 58.0138 6.2999 57.8649 6.2999H57.569V6.9299H57.8649ZM59.0204 5.2379H60.2101V5.5319H59.3706V6.0329H60.0802V6.3269H59.3706V6.9059H60.2403V7.1999H59.0204V5.2379ZM60.7146 6.7109C60.785 6.7769 60.8655 6.8309 60.9561 6.8729C61.0467 6.9129 61.1373 6.9329 61.2279 6.9329C61.3406 6.9329 61.4262 6.9099 61.4845 6.8639C61.5429 6.8179 61.5721 6.7569 61.5721 6.6809C61.5721 6.6409 61.5641 6.6069 61.548 6.5789C61.5339 6.5509 61.5127 6.5269 61.4845 6.5069C61.4584 6.4849 61.4262 6.4649 61.3879 6.4469C61.3517 6.4289 61.3114 6.4109 61.2671 6.3929L60.9954 6.2759C60.9471 6.2559 60.8988 6.2309 60.8505 6.2009C60.8042 6.1709 60.7619 6.1349 60.7236 6.0929C60.6854 6.0509 60.6542 6.0019 60.63 5.9459C60.6079 5.8899 60.5968 5.8259 60.5968 5.7539C60.5968 5.6759 60.6129 5.6039 60.6451 5.5379C60.6793 5.4699 60.7256 5.4109 60.784 5.3609C60.8424 5.3109 60.9118 5.2719 60.9924 5.2439C61.0749 5.2159 61.1645 5.2019 61.2611 5.2019C61.3758 5.2019 61.4866 5.2249 61.5932 5.2709C61.6999 5.3149 61.7915 5.3749 61.868 5.4509L61.6899 5.6729C61.6255 5.6209 61.559 5.5799 61.4906 5.5499C61.4221 5.5199 61.3456 5.5049 61.2611 5.5049C61.1665 5.5049 61.091 5.5259 61.0346 5.5679C60.9783 5.6079 60.9501 5.6639 60.9501 5.7359C60.9501 5.7739 60.9581 5.8069 60.9742 5.8349C60.9924 5.8609 61.0155 5.8849 61.0437 5.9069C61.0739 5.9269 61.1081 5.9459 61.1464 5.9639C61.1846 5.9799 61.2239 5.9959 61.2641 6.0119L61.5329 6.1229C61.5912 6.1469 61.6446 6.1749 61.6929 6.2069C61.7412 6.2389 61.7825 6.2759 61.8167 6.3179C61.8529 6.3599 61.8811 6.4089 61.9012 6.4649C61.9214 6.5189 61.9314 6.5819 61.9314 6.6539C61.9314 6.7339 61.9153 6.8089 61.8831 6.8789C61.8509 6.9489 61.8036 7.0109 61.7412 7.0649C61.6808 7.1169 61.6063 7.1589 61.5178 7.1909C61.4312 7.2209 61.3326 7.2359 61.2218 7.2359C61.089 7.2359 60.9602 7.2109 60.8354 7.1609C60.7126 7.1109 60.6039 7.0399 60.5092 6.9479L60.7146 6.7109ZM62.6301 5.5319H62.0594V5.2379H63.551V5.5319H62.9804V7.1999H62.6301V5.5319ZM55.1414 8.6379H55.5279L55.8842 9.6039L56.014 9.9759H56.0261L56.1529 9.6039L56.5031 8.6379H56.8896V10.5999H56.5605V9.7029C56.5605 9.6569 56.5615 9.6069 56.5635 9.5529C56.5676 9.4989 56.5716 9.4449 56.5756 9.3909C56.5796 9.3349 56.5847 9.2809 56.5907 9.2289C56.5967 9.1749 56.6018 9.1249 56.6058 9.0789H56.5937L56.4337 9.5259L56.0925 10.4169H55.9294L55.5882 9.5259L55.4312 9.0789H55.4191C55.4232 9.1249 55.4272 9.1749 55.4312 9.2289C55.4373 9.2809 55.4423 9.3349 55.4463 9.3909C55.4524 9.4449 55.4564 9.4989 55.4584 9.5529C55.4624 9.6069 55.4644 9.6569 55.4644 9.7029V10.5999H55.1414V8.6379ZM58.2306 9.7959L58.1612 9.5559C58.129 9.4519 58.0978 9.3449 58.0676 9.2349C58.0394 9.1249 58.0112 9.0159 57.983 8.9079H57.971C57.9428 9.0179 57.9146 9.1279 57.8864 9.2379C57.8582 9.3459 57.828 9.4519 57.7958 9.5559L57.7264 9.7959H58.2306ZM58.3091 10.0689H57.6448L57.4909 10.5999H57.1346L57.7777 8.6379H58.1884L58.8315 10.5999H58.4631L58.3091 10.0689ZM59.4252 9.5559H59.706C59.8409 9.5559 59.9435 9.5279 60.014 9.4719C60.0865 9.4159 60.1227 9.3319 60.1227 9.2199C60.1227 9.1059 60.0865 9.0269 60.014 8.9829C59.9435 8.9389 59.8409 8.9169 59.706 8.9169H59.4252V9.5559ZM60.1529 10.5999L59.7271 9.8319H59.4252V10.5999H59.0749V8.6379H59.7422C59.8449 8.6379 59.9405 8.6479 60.0291 8.6679C60.1177 8.6879 60.1942 8.7209 60.2586 8.7669C60.323 8.8109 60.3733 8.8699 60.4095 8.9439C60.4478 9.0179 60.4669 9.1099 60.4669 9.2199C60.4669 9.3699 60.4307 9.4909 60.3582 9.5829C60.2878 9.6749 60.1932 9.7409 60.0744 9.7809L60.5454 10.5999H60.1529ZM60.8825 8.6379H61.2328V9.5289H61.2418L61.9454 8.6379H62.3349L61.728 9.4029L62.4375 10.5999H62.051L61.5166 9.6759L61.2328 10.0269V10.5999H60.8825V8.6379ZM62.6842 8.6379H63.8738V8.9319H63.0344V9.4329H63.744V9.7269H63.0344V10.3059H63.904V10.5999H62.6842V8.6379ZM64.7075 8.9319H64.1368V8.6379H65.6285V8.9319H65.0577V10.5999H64.7075V8.9319ZM56.3887 12.0379H57.053C57.1617 12.0379 57.2613 12.0479 57.3519 12.0679C57.4445 12.0879 57.524 12.1219 57.5904 12.1699C57.6568 12.2179 57.7092 12.2809 57.7474 12.3589C57.7857 12.4349 57.8048 12.5299 57.8048 12.6439C57.8048 12.7519 57.7857 12.8459 57.7474 12.9259C57.7092 13.0059 57.6558 13.0729 57.5874 13.1269C57.521 13.1789 57.4415 13.2179 57.3489 13.2439C57.2583 13.2679 57.1596 13.2799 57.053 13.2799H56.7389V13.9999H56.3887V12.0379ZM57.0258 13.0009C57.3156 13.0009 57.4606 12.8819 57.4606 12.6439C57.4606 12.5199 57.4243 12.4349 57.3519 12.3889C57.2794 12.3409 57.1707 12.3169 57.0258 12.3169H56.7389V13.0009H57.0258ZM58.1756 12.0379H58.5258V13.7059H59.3471V13.9999H58.1756V12.0379ZM60.5306 13.1959L60.4612 12.9559C60.429 12.8519 60.3978 12.7449 60.3676 12.6349C60.3394 12.5249 60.3112 12.4159 60.283 12.3079H60.271C60.2428 12.4179 60.2146 12.5279 60.1864 12.6379C60.1582 12.7459 60.128 12.8519 60.0958 12.9559L60.0264 13.1959H60.5306ZM60.6091 13.4689H59.9448L59.7909 13.9999H59.4346L60.0777 12.0379H60.4884L61.1315 13.9999H60.7631L60.6091 13.4689ZM61.2428 13.0249C61.2428 12.8649 61.2659 12.7219 61.3122 12.5959C61.3605 12.4679 61.426 12.3599 61.5085 12.2719C61.591 12.1839 61.6877 12.1169 61.7984 12.0709C61.9091 12.0249 62.0278 12.0019 62.1547 12.0019C62.2754 12.0019 62.3831 12.0269 62.4778 12.0769C62.5744 12.1269 62.6539 12.1849 62.7163 12.2509L62.52 12.4669C62.4697 12.4169 62.4153 12.3779 62.357 12.3499C62.3006 12.3199 62.2342 12.3049 62.1577 12.3049C62.0752 12.3049 61.9997 12.3219 61.9312 12.3559C61.8648 12.3879 61.8064 12.4349 61.7561 12.4969C61.7078 12.5569 61.6695 12.6309 61.6414 12.7189C61.6152 12.8069 61.6021 12.9059 61.6021 13.0159C61.6021 13.2399 61.6504 13.4159 61.747 13.5439C61.8457 13.6699 61.9785 13.7329 62.1456 13.7329C62.2342 13.7329 62.3107 13.7159 62.3751 13.6819C62.4415 13.6479 62.5029 13.5999 62.5593 13.5379L62.7555 13.7509C62.675 13.8429 62.5834 13.9139 62.4808 13.9639C62.3781 14.0119 62.2644 14.0359 62.1396 14.0359C62.0128 14.0359 61.895 14.0139 61.7863 13.9699C61.6776 13.9259 61.583 13.8609 61.5025 13.7749C61.4219 13.6889 61.3585 13.5829 61.3122 13.4569C61.2659 13.3309 61.2428 13.1869 61.2428 13.0249ZM63.0852 12.0379H64.2749V12.3319H63.4354V12.8329H64.145V13.1269H63.4354V13.7059H64.3051V13.9999H63.0852V12.0379Z" fill="white"/>
<path d="M61.2776 2.89224C61.2539 2.87206 61.2203 2.86782 61.1922 2.88142L60.7619 3.08954L60.3581 2.62704C60.3432 2.60992 60.3215 2.6001 60.2987 2.6001C60.2759 2.6001 60.2543 2.60992 60.2393 2.62704L59.8356 3.08954L59.4053 2.88142C59.3772 2.86782 59.3436 2.87206 59.3198 2.89224C59.296 2.9124 59.2865 2.94466 59.2956 2.97438L59.5944 3.95094C59.6045 3.98386 59.6351 4.00634 59.6697 4.00634H60.9278C60.9624 4.00634 60.993 3.98386 61.003 3.95096L61.3018 2.97438C61.3109 2.94466 61.3014 2.9124 61.2776 2.89224ZM60.8695 3.8501H59.7279L59.4985 3.1003L59.821 3.25628C59.853 3.27176 59.8915 3.26394 59.9148 3.23722L60.2987 2.79746L60.6826 3.23722C60.706 3.26396 60.7444 3.27176 60.7765 3.25628L61.0989 3.1003L60.8695 3.8501Z" fill="white"/>
<path d="M68.1494 20C68.0241 19.3774 68.0326 19.0387 68.1494 18.6C68.4461 17.7555 68.81 17.4575 69.5585 17C69.6531 17.6405 69.6241 17.9894 69.4578 18.6C69.3084 19.0299 69.119 19.2705 68.7533 19.7L68.1494 20Z" fill="white"/>
<path d="M70.4597 18.2805C70.1702 17.7145 70.0865 17.386 70.0798 16.9323C70.1364 16.0396 70.4061 15.6551 71.0028 15.0142C71.2677 15.6057 71.3343 15.9494 71.34 16.5819C71.3128 17.0359 71.1954 17.3184 70.9597 17.8299L70.4597 18.2805Z" fill="white"/>
<path d="M72.0153 15.7177C71.5819 15.2512 71.4114 14.9578 71.2807 14.5229C71.0909 13.6486 71.2451 13.2058 71.6437 12.4277C72.0606 12.9254 72.2188 13.2381 72.3973 13.8453C72.4956 14.2895 72.4599 14.593 72.3732 15.1489L72.0153 15.7177Z" fill="white"/>
<path d="M73.0046 12.9886C72.4331 12.7046 72.1692 12.4901 71.8922 12.1293C71.4033 11.3783 71.3898 10.9098 71.4856 10.042C72.0526 10.361 72.3121 10.5979 72.6952 11.103C72.9452 11.4839 73.0201 11.7803 73.1368 12.3307L73.0046 12.9886Z" fill="white"/>
<path d="M73.0025 10.3861C72.4004 10.1736 72.1119 9.99267 71.7927 9.66813C71.2151 8.98205 71.1443 8.51873 71.1328 7.64575C71.7347 7.89355 72.0213 8.09721 72.4636 8.55207C72.7585 8.89989 72.8694 9.18495 73.0528 9.71711L73.0025 10.3861Z" fill="white"/>
<path d="M72.5056 7.5535C71.8676 7.51918 71.5395 7.42684 71.1408 7.20546C70.3911 6.71002 70.1912 6.28562 69.9312 5.45166C70.5791 5.51988 70.9121 5.63452 71.4661 5.94626C71.8479 6.19684 72.0355 6.43906 72.3632 6.89774L72.5056 7.5535Z" fill="white"/>
<path d="M71.3715 4.94884C70.7412 5.0531 70.4006 5.0338 69.963 4.90378C69.1232 4.582 68.8349 4.21094 68.3989 3.45302C69.0463 3.37972 69.3964 3.41974 70.0053 3.60446C70.4329 3.76656 70.6688 3.96252 71.0891 4.3395L71.3715 4.94884Z" fill="white"/>
<path d="M69.5313 2.48955C68.8928 2.51385 68.5574 2.45197 68.1399 2.26807C67.3476 1.84341 67.1089 1.43917 66.7727 0.632568C67.4243 0.64113 67.7663 0.724778 68.3469 0.984428C68.7601 1.17922 69.0005 1.37026 69.3286 1.84963C69.4413 2.03205 69.4771 2.18953 69.5313 2.48955Z" fill="white"/>
<path d="M67.988 20.4046C68.4951 20.0184 68.8047 19.8764 69.2526 19.7868C70.1462 19.6787 70.5759 19.8718 71.3193 20.3372C70.7827 20.7042 70.4547 20.8322 69.8299 20.9534C69.1576 21.0474 68.8347 20.9884 68.5255 20.8106C68.2761 20.6544 68.1557 20.5656 67.988 20.4046Z" fill="white"/>
<path d="M70.4038 18.6045C70.9109 18.2182 71.2205 18.0763 71.6684 17.9868C72.5619 17.8787 72.9917 18.0717 73.7351 18.5372C73.1984 18.9041 72.8705 19.0322 72.2457 19.1534C71.5734 19.2473 71.2505 19.1884 70.9413 19.0106C70.6919 18.8543 70.5715 18.7654 70.4038 18.6045Z" fill="white"/>
<path d="M72.0491 16.3323C72.2977 15.7475 72.4962 15.472 72.8408 15.1742C73.5638 14.6413 74.0335 14.598 74.9113 14.6374C74.6273 15.22 74.4059 15.4925 73.9232 15.9047C73.3855 16.3166 73.0755 16.424 72.7182 16.4213C72.4237 16.408 72.2747 16.3899 72.0491 16.3323Z" fill="white"/>
<path d="M73.0625 13.5457C73.2195 12.9304 73.3741 12.6283 73.6698 12.2824C74.3039 11.6475 74.7617 11.5344 75.6355 11.4421C75.4429 12.0606 75.2653 12.363 74.8504 12.8428C74.3812 13.3304 74.0911 13.4829 73.7375 13.5336C73.4444 13.5645 73.2944 13.5688 73.0625 13.5457Z" fill="white"/>
<path d="M73.2723 10.8009C73.1759 10.1733 73.1998 9.83536 73.3367 9.40236C73.6719 8.57222 74.0491 8.29098 74.8176 7.86792C74.8829 8.51208 74.8378 8.8593 74.6437 9.46168C74.4028 10.0923 74.1952 10.345 73.8895 10.5286C73.6314 10.6705 73.4949 10.7325 73.2723 10.8009Z" fill="white"/>
<path d="M72.9801 8.00356C72.75 7.41124 72.7003 7.07606 72.7403 6.62398C72.8879 5.74166 73.1957 5.38642 73.8547 4.80908C74.0576 5.4243 74.0888 5.77302 74.0296 6.40276C73.9306 7.0701 73.7826 7.36128 73.5238 7.60584C73.3026 7.79952 73.1828 7.88918 72.9801 8.00356Z" fill="white"/>
<path d="M72.005 5.33301C71.6112 4.83301 71.4653 4.52677 71.3709 4.08279C71.2533 3.19601 71.4433 2.76709 71.9045 2.02393C72.2789 2.55367 72.4112 2.87821 72.5392 3.49777C72.6405 4.16479 72.5843 4.48617 72.4084 4.79509C72.2536 5.04445 72.1652 5.16491 72.005 5.33301Z" fill="white"/>
<path d="M70.7043 3.50232C70.2528 3.05322 70.0706 2.7667 69.9229 2.3373C69.6984 1.47111 69.8351 1.02253 70.2025 0.229492C70.6387 0.710428 70.8094 1.01674 71.0117 1.6164C71.1933 2.26642 71.1766 2.59218 71.0395 2.91996C70.9161 3.18604 70.843 3.31622 70.7043 3.50232Z" fill="white"/>
<path d="M52.7356 20C52.8607 19.3774 52.8523 19.0387 52.7356 18.6C52.4389 17.7555 52.0749 17.4575 51.3265 17C51.2319 17.6405 51.2609 17.9894 51.4271 18.6C51.5764 19.0299 51.766 19.2705 52.1317 19.7L52.7356 20Z" fill="white"/>
<path d="M50.4254 18.2805C50.7148 17.7145 50.7986 17.386 50.8052 16.9323C50.7485 16.0396 50.4789 15.6551 49.8823 15.0142C49.6174 15.6057 49.5507 15.9494 49.5452 16.5819C49.5723 17.0359 49.6896 17.3184 49.9252 17.8299L50.4254 18.2805Z" fill="white"/>
<path d="M48.8698 15.7177C49.3033 15.2512 49.4738 14.9578 49.6044 14.5229C49.7943 13.6486 49.64 13.2058 49.2414 12.4277C48.8246 12.9254 48.6663 13.2381 48.4877 13.8453C48.3896 14.2895 48.4251 14.593 48.5118 15.1489L48.8698 15.7177Z" fill="white"/>
<path d="M47.8805 12.9886C48.4521 12.7046 48.716 12.4901 48.993 12.1293C49.482 11.3783 49.4954 10.9098 49.3996 10.042C48.8325 10.361 48.5731 10.5979 48.19 11.103C47.94 11.4839 47.8651 11.7803 47.7483 12.3307L47.8805 12.9886Z" fill="white"/>
<path d="M47.8825 10.3861C48.4846 10.1736 48.7729 9.99267 49.0922 9.66813C49.6697 8.98205 49.7406 8.51873 49.7522 7.64575C49.1502 7.89355 48.8636 8.09721 48.4212 8.55207C48.1263 8.89989 48.0156 9.18495 47.832 9.71711L47.8825 10.3861Z" fill="white"/>
<path d="M48.3792 7.5535C49.0172 7.51918 49.3453 7.42684 49.744 7.20546C50.4935 6.71002 50.6936 6.28562 50.9536 5.45166C50.3056 5.51988 49.9727 5.63452 49.4187 5.94626C49.0367 6.19684 48.8493 6.43906 48.5215 6.89774L48.3792 7.5535Z" fill="white"/>
<path d="M49.5134 4.94884C50.1437 5.0531 50.4842 5.0338 50.9218 4.90378C51.7618 4.582 52.0499 4.21094 52.486 3.45302C51.8386 3.37972 51.4885 3.41974 50.8797 3.60446C50.452 3.76656 50.216 3.96252 49.7958 4.3395L49.5134 4.94884Z" fill="white"/>
<path d="M51.3538 2.48955C51.9923 2.51385 52.3275 2.45197 52.7451 2.26807C53.5374 1.84341 53.776 1.43917 54.1123 0.632568C53.4607 0.64113 53.1186 0.724778 52.5381 0.984428C52.1249 1.17922 51.8844 1.37026 51.5564 1.84963C51.4435 2.03205 51.4078 2.18953 51.3538 2.48955Z" fill="white"/>
<path d="M52.8968 20.4046C52.3898 20.0184 52.0801 19.8764 51.6323 19.7868C50.7387 19.6787 50.3089 19.8718 49.5654 20.3372C50.1023 20.7042 50.4302 20.8322 51.055 20.9534C51.7273 21.0474 52.0502 20.9884 52.3594 20.8106C52.6088 20.6544 52.7292 20.5656 52.8968 20.4046Z" fill="white"/>
<path d="M50.4813 18.6045C49.9742 18.2182 49.6646 18.0763 49.2168 17.9868C48.3232 17.8787 47.8933 18.0717 47.1499 18.5372C47.6867 18.9041 48.0147 19.0322 48.6395 19.1534C49.3118 19.2473 49.6347 19.1884 49.9439 19.0106C50.1933 18.8543 50.3137 18.7654 50.4813 18.6045Z" fill="white"/>
<path d="M48.8359 16.3323C48.5873 15.7475 48.3888 15.472 48.0441 15.1742C47.3211 14.6413 46.8515 14.598 45.9736 14.6374C46.2577 15.22 46.479 15.4925 46.9618 15.9047C47.4994 16.3166 47.8094 16.424 48.1667 16.4213C48.4612 16.408 48.6101 16.3899 48.8359 16.3323Z" fill="white"/>
<path d="M47.8225 13.5457C47.6653 12.9304 47.5108 12.6283 47.2151 12.2824C46.5811 11.6475 46.1233 11.5344 45.2495 11.4421C45.4421 12.0606 45.6196 12.363 46.0345 12.8428C46.5036 13.3304 46.7938 13.4829 47.1474 13.5336C47.4406 13.5645 47.5906 13.5688 47.8225 13.5457Z" fill="white"/>
<path d="M47.6124 10.8009C47.7088 10.1733 47.6848 9.83536 47.5481 9.40236C47.2129 8.57222 46.8356 8.29098 46.067 7.86792C46.0019 8.51208 46.0469 8.8593 46.241 9.46168C46.482 10.0923 46.6895 10.345 46.9953 10.5286C47.2533 10.6705 47.3897 10.7325 47.6124 10.8009Z" fill="white"/>
<path d="M47.9052 8.00356C48.1351 7.41124 48.1848 7.07606 48.145 6.62398C47.9972 5.74166 47.6896 5.38642 47.0304 4.80908C46.8275 5.4243 46.7964 5.77302 46.8556 6.40276C46.9545 7.0701 47.1025 7.36128 47.3615 7.60584C47.5827 7.79952 47.7025 7.88918 47.9052 8.00356Z" fill="white"/>
<path d="M48.8801 5.33301C49.2739 4.83301 49.4197 4.52677 49.5142 4.08279C49.6318 3.19601 49.4417 2.76709 48.9806 2.02393C48.606 2.55367 48.4739 2.87821 48.3457 3.49777C48.2446 4.16479 48.3008 4.48617 48.4767 4.79509C48.6315 5.04445 48.7198 5.16491 48.8801 5.33301Z" fill="white"/>
<path d="M50.1805 3.50232C50.6321 3.05322 50.8141 2.7667 50.9619 2.3373C51.1863 1.47111 51.0498 1.02253 50.6823 0.229492C50.2461 0.710428 50.0755 1.01674 49.8731 1.6164C49.6916 2.26642 49.7083 2.59218 49.8454 2.91996C49.9688 3.18604 50.0418 3.31622 50.1805 3.50232Z" fill="white"/>
<path d="M103.078 16.08L103.45 16.35L103.31 15.91L103.682 15.65H103.229L103.078 15.2L102.927 15.65H102.474L102.847 15.91L102.706 16.35L103.078 16.08Z" fill="white"/>
<path d="M104.688 16.08L105.061 16.35L104.92 15.91L105.292 15.65H104.839L104.688 15.2L104.537 15.65H104.084L104.457 15.91L104.316 16.35L104.688 16.08Z" fill="white"/>
<path d="M106.299 16.08L106.671 16.35L106.53 15.91L106.903 15.65H106.45L106.299 15.2L106.148 15.65H105.695L106.067 15.91L105.926 16.35L106.299 16.08Z" fill="white"/>
<path d="M107.909 16.08L108.281 16.35L108.141 15.91L108.513 15.65H108.06L107.909 15.2L107.758 15.65H107.305L107.678 15.91L107.537 16.35L107.909 16.08Z" fill="white"/>
<path d="M109.519 16.08L109.892 16.35L109.751 15.91L110.123 15.65H109.67L109.519 15.2L109.368 15.65H108.916L109.288 15.91L109.147 16.35L109.519 16.08Z" fill="white"/>
<path d="M104.361 19.0001V18.9119C104.448 18.8255 104.525 18.7475 104.593 18.6779C104.66 18.6083 104.717 18.5441 104.763 18.4853C104.809 18.4253 104.844 18.3707 104.868 18.3215C104.892 18.2711 104.904 18.2225 104.904 18.1757C104.904 18.1097 104.886 18.0557 104.85 18.0137C104.814 17.9717 104.759 17.9507 104.685 17.9507C104.637 17.9507 104.592 17.9645 104.551 17.9921C104.51 18.0185 104.472 18.0509 104.439 18.0893L104.354 18.0047C104.402 17.9519 104.453 17.9099 104.508 17.8787C104.562 17.8463 104.627 17.8301 104.703 17.8301C104.811 17.8301 104.895 17.8613 104.957 17.9237C105.018 17.9849 105.049 18.0665 105.049 18.1685C105.049 18.2225 105.037 18.2771 105.013 18.3323C104.99 18.3863 104.957 18.4427 104.915 18.5015C104.874 18.5591 104.825 18.6197 104.767 18.6833C104.71 18.7457 104.647 18.8123 104.578 18.8831C104.61 18.8807 104.642 18.8783 104.676 18.8759C104.71 18.8735 104.742 18.8723 104.772 18.8723H105.107V19.0001H104.361ZM105.712 19.0217C105.595 19.0217 105.504 18.9701 105.439 18.8669C105.374 18.7637 105.341 18.6155 105.341 18.4223C105.341 18.2291 105.374 18.0821 105.439 17.9813C105.504 17.8805 105.595 17.8301 105.712 17.8301C105.828 17.8301 105.919 17.8805 105.984 17.9813C106.049 18.0821 106.082 18.2291 106.082 18.4223C106.082 18.6155 106.049 18.7637 105.984 18.8669C105.919 18.9701 105.828 19.0217 105.712 19.0217ZM105.712 18.9029C105.746 18.9029 105.776 18.8939 105.803 18.8759C105.831 18.8567 105.854 18.8279 105.874 18.7895C105.894 18.7499 105.91 18.7001 105.921 18.6401C105.932 18.5789 105.937 18.5063 105.937 18.4223C105.937 18.3383 105.932 18.2663 105.921 18.2063C105.91 18.1463 105.894 18.0977 105.874 18.0605C105.854 18.0221 105.831 17.9939 105.803 17.9759C105.776 17.9579 105.746 17.9489 105.712 17.9489C105.679 17.9489 105.648 17.9579 105.62 17.9759C105.592 17.9939 105.568 18.0221 105.548 18.0605C105.528 18.0977 105.513 18.1463 105.502 18.2063C105.491 18.2663 105.486 18.3383 105.486 18.4223C105.486 18.5903 105.506 18.7127 105.548 18.7895C105.59 18.8651 105.645 18.9029 105.712 18.9029ZM106.377 19.0001V18.8777H106.642V18.0317H106.432V17.9363C106.485 17.9267 106.531 17.9153 106.569 17.9021C106.609 17.8877 106.645 17.8709 106.676 17.8517H106.79V18.8777H107.03V19.0001H106.377ZM107.633 18.4421C107.672 18.4421 107.712 18.4301 107.754 18.4061C107.798 18.3821 107.838 18.3431 107.876 18.2891C107.866 18.1763 107.84 18.0911 107.796 18.0335C107.753 17.9759 107.694 17.9471 107.62 17.9471C107.593 17.9471 107.566 17.9531 107.541 17.9651C107.517 17.9771 107.495 17.9945 107.477 18.0173C107.459 18.0389 107.445 18.0653 107.434 18.0965C107.424 18.1277 107.419 18.1619 107.419 18.1991C107.419 18.2747 107.437 18.3341 107.472 18.3773C107.507 18.4205 107.561 18.4421 107.633 18.4421ZM107.579 19.0217C107.517 19.0217 107.463 19.0103 107.416 18.9875C107.37 18.9647 107.331 18.9359 107.3 18.9011L107.383 18.8075C107.407 18.8351 107.436 18.8573 107.468 18.8741C107.502 18.8909 107.537 18.8993 107.573 18.8993C107.614 18.8993 107.653 18.8909 107.689 18.8741C107.725 18.8573 107.757 18.8297 107.785 18.7913C107.813 18.7517 107.835 18.7007 107.852 18.6383C107.869 18.5759 107.878 18.4985 107.879 18.4061C107.843 18.4517 107.801 18.4877 107.753 18.5141C107.704 18.5405 107.656 18.5537 107.608 18.5537C107.507 18.5537 107.428 18.5243 107.369 18.4655C107.309 18.4067 107.28 18.3179 107.28 18.1991C107.28 18.1439 107.289 18.0941 107.307 18.0497C107.325 18.0041 107.349 17.9651 107.379 17.9327C107.411 17.9003 107.447 17.8751 107.488 17.8571C107.53 17.8391 107.574 17.8301 107.62 17.8301C107.677 17.8301 107.73 17.8415 107.778 17.8643C107.828 17.8871 107.87 17.9219 107.905 17.9687C107.941 18.0143 107.969 18.0719 107.988 18.1415C108.009 18.2099 108.019 18.2903 108.019 18.3827C108.019 18.4979 108.007 18.5963 107.983 18.6779C107.959 18.7583 107.926 18.8243 107.885 18.8759C107.844 18.9263 107.797 18.9635 107.744 18.9875C107.692 19.0103 107.637 19.0217 107.579 19.0217Z" fill="white"/>
<path d="M103.219 5.2379H103.85C103.952 5.2379 104.046 5.2469 104.131 5.2649C104.217 5.2809 104.292 5.3079 104.354 5.3459C104.418 5.3819 104.468 5.4309 104.502 5.4929C104.538 5.5549 104.556 5.6309 104.556 5.7209C104.556 5.8149 104.528 5.9019 104.472 5.9819C104.417 6.0619 104.333 6.1169 104.218 6.1469V6.1589C104.361 6.1829 104.47 6.2339 104.544 6.3119C104.621 6.3879 104.659 6.4919 104.659 6.6239C104.659 6.7219 104.64 6.8069 104.602 6.8789C104.563 6.9509 104.51 7.0109 104.442 7.0589C104.375 7.1069 104.296 7.1429 104.203 7.1669C104.11 7.1889 104.01 7.1999 103.901 7.1999H103.219V5.2379ZM103.82 6.0509C103.958 6.0509 104.058 6.0259 104.119 5.9759C104.181 5.9259 104.212 5.8549 104.212 5.7629C104.212 5.6729 104.18 5.6079 104.116 5.5679C104.051 5.5279 103.954 5.5079 103.826 5.5079H103.569V6.0509H103.82ZM103.865 6.9299C104.01 6.9299 104.122 6.9029 104.2 6.8489C104.279 6.7949 104.318 6.7119 104.318 6.5999C104.318 6.4979 104.28 6.4229 104.203 6.3749C104.127 6.3249 104.014 6.2999 103.865 6.2999H103.569V6.9299H103.865ZM105.02 5.2379H106.21V5.5319H105.371V6.0329H106.08V6.3269H105.371V6.9059H106.24V7.1999H105.02V5.2379ZM106.715 6.7109C106.785 6.7769 106.866 6.8309 106.956 6.8729C107.047 6.9129 107.137 6.9329 107.228 6.9329C107.341 6.9329 107.426 6.9099 107.485 6.8639C107.543 6.8179 107.572 6.7569 107.572 6.6809C107.572 6.6409 107.564 6.6069 107.548 6.5789C107.534 6.5509 107.513 6.5269 107.485 6.5069C107.458 6.4849 107.426 6.4649 107.388 6.4469C107.352 6.4289 107.311 6.4109 107.267 6.3929L106.995 6.2759C106.947 6.2559 106.899 6.2309 106.85 6.2009C106.804 6.1709 106.762 6.1349 106.724 6.0929C106.685 6.0509 106.654 6.0019 106.63 5.9459C106.608 5.8899 106.597 5.8259 106.597 5.7539C106.597 5.6759 106.613 5.6039 106.645 5.5379C106.679 5.4699 106.726 5.4109 106.784 5.3609C106.842 5.3109 106.912 5.2719 106.992 5.2439C107.075 5.2159 107.164 5.2019 107.261 5.2019C107.376 5.2019 107.487 5.2249 107.593 5.2709C107.7 5.3149 107.792 5.3749 107.868 5.4509L107.69 5.6729C107.625 5.6209 107.559 5.5799 107.491 5.5499C107.422 5.5199 107.346 5.5049 107.261 5.5049C107.166 5.5049 107.091 5.5259 107.035 5.5679C106.978 5.6079 106.95 5.6639 106.95 5.7359C106.95 5.7739 106.958 5.8069 106.974 5.8349C106.992 5.8609 107.016 5.8849 107.044 5.9069C107.074 5.9269 107.108 5.9459 107.146 5.9639C107.185 5.9799 107.224 5.9959 107.264 6.0119L107.533 6.1229C107.591 6.1469 107.645 6.1749 107.693 6.2069C107.741 6.2389 107.782 6.2759 107.817 6.3179C107.853 6.3599 107.881 6.4089 107.901 6.4649C107.921 6.5189 107.931 6.5819 107.931 6.6539C107.931 6.7339 107.915 6.8089 107.883 6.8789C107.851 6.9489 107.804 7.0109 107.741 7.0649C107.681 7.1169 107.606 7.1589 107.518 7.1909C107.431 7.2209 107.333 7.2359 107.222 7.2359C107.089 7.2359 106.96 7.2109 106.835 7.1609C106.713 7.1109 106.604 7.0399 106.509 6.9479L106.715 6.7109ZM108.63 5.5319H108.059V5.2379H109.551V5.5319H108.98V7.1999H108.63V5.5319ZM101.141 8.6379H101.528L101.884 9.6039L102.014 9.9759H102.026L102.153 9.6039L102.503 8.6379H102.89V10.5999H102.561V9.7029C102.561 9.6569 102.562 9.6069 102.564 9.5529C102.568 9.4989 102.572 9.4449 102.576 9.3909C102.58 9.3349 102.585 9.2809 102.591 9.2289C102.597 9.1749 102.602 9.1249 102.606 9.0789H102.594L102.434 9.5259L102.092 10.4169H101.929L101.588 9.5259L101.431 9.0789H101.419C101.423 9.1249 101.427 9.1749 101.431 9.2289C101.437 9.2809 101.442 9.3349 101.446 9.3909C101.452 9.4449 101.456 9.4989 101.458 9.5529C101.462 9.6069 101.464 9.6569 101.464 9.7029V10.5999H101.141V8.6379ZM104.231 9.7959L104.161 9.5559C104.129 9.4519 104.098 9.3449 104.068 9.2349C104.039 9.1249 104.011 9.0159 103.983 8.9079H103.971C103.943 9.0179 103.915 9.1279 103.886 9.2379C103.858 9.3459 103.828 9.4519 103.796 9.5559L103.726 9.7959H104.231ZM104.309 10.0689H103.645L103.491 10.5999H103.135L103.778 8.6379H104.188L104.832 10.5999H104.463L104.309 10.0689ZM105.425 9.5559H105.706C105.841 9.5559 105.944 9.5279 106.014 9.4719C106.086 9.4159 106.123 9.3319 106.123 9.2199C106.123 9.1059 106.086 9.0269 106.014 8.9829C105.944 8.9389 105.841 8.9169 105.706 8.9169H105.425V9.5559ZM106.153 10.5999L105.727 9.8319H105.425V10.5999H105.075V8.6379H105.742C105.845 8.6379 105.941 8.6479 106.029 8.6679C106.118 8.6879 106.194 8.7209 106.259 8.7669C106.323 8.8109 106.373 8.8699 106.41 8.9439C106.448 9.0179 106.467 9.1099 106.467 9.2199C106.467 9.3699 106.431 9.4909 106.358 9.5829C106.288 9.6749 106.193 9.7409 106.074 9.7809L106.545 10.5999H106.153ZM106.882 8.6379H107.233V9.5289H107.242L107.945 8.6379H108.335L107.728 9.4029L108.438 10.5999H108.051L107.517 9.6759L107.233 10.0269V10.5999H106.882V8.6379ZM108.684 8.6379H109.874V8.9319H109.034V9.4329H109.744V9.7269H109.034V10.3059H109.904V10.5999H108.684V8.6379ZM110.707 8.9319H110.137V8.6379H111.628V8.9319H111.058V10.5999H110.707V8.9319ZM102.389 12.0379H103.053C103.162 12.0379 103.261 12.0479 103.352 12.0679C103.444 12.0879 103.524 12.1219 103.59 12.1699C103.657 12.2179 103.709 12.2809 103.747 12.3589C103.786 12.4349 103.805 12.5299 103.805 12.6439C103.805 12.7519 103.786 12.8459 103.747 12.9259C103.709 13.0059 103.656 13.0729 103.587 13.1269C103.521 13.1789 103.441 13.2179 103.349 13.2439C103.258 13.2679 103.16 13.2799 103.053 13.2799H102.739V13.9999H102.389V12.0379ZM103.026 13.0009C103.316 13.0009 103.461 12.8819 103.461 12.6439C103.461 12.5199 103.424 12.4349 103.352 12.3889C103.279 12.3409 103.171 12.3169 103.026 12.3169H102.739V13.0009H103.026ZM104.176 12.0379H104.526V13.7059H105.347V13.9999H104.176V12.0379ZM106.531 13.1959L106.461 12.9559C106.429 12.8519 106.398 12.7449 106.368 12.6349C106.339 12.5249 106.311 12.4159 106.283 12.3079H106.271C106.243 12.4179 106.215 12.5279 106.186 12.6379C106.158 12.7459 106.128 12.8519 106.096 12.9559L106.026 13.1959H106.531ZM106.609 13.4689H105.945L105.791 13.9999H105.435L106.078 12.0379H106.488L107.132 13.9999H106.763L106.609 13.4689ZM107.243 13.0249C107.243 12.8649 107.266 12.7219 107.312 12.5959C107.361 12.4679 107.426 12.3599 107.508 12.2719C107.591 12.1839 107.688 12.1169 107.798 12.0709C107.909 12.0249 108.028 12.0019 108.155 12.0019C108.275 12.0019 108.383 12.0269 108.478 12.0769C108.574 12.1269 108.654 12.1849 108.716 12.2509L108.52 12.4669C108.47 12.4169 108.415 12.3779 108.357 12.3499C108.301 12.3199 108.234 12.3049 108.158 12.3049C108.075 12.3049 108 12.3219 107.931 12.3559C107.865 12.3879 107.806 12.4349 107.756 12.4969C107.708 12.5569 107.67 12.6309 107.641 12.7189C107.615 12.8069 107.602 12.9059 107.602 13.0159C107.602 13.2399 107.65 13.4159 107.747 13.5439C107.846 13.6699 107.979 13.7329 108.146 13.7329C108.234 13.7329 108.311 13.7159 108.375 13.6819C108.442 13.6479 108.503 13.5999 108.559 13.5379L108.756 13.7509C108.675 13.8429 108.583 13.9139 108.481 13.9639C108.378 14.0119 108.264 14.0359 108.14 14.0359C108.013 14.0359 107.895 14.0139 107.786 13.9699C107.678 13.9259 107.583 13.8609 107.502 13.7749C107.422 13.6889 107.359 13.5829 107.312 13.4569C107.266 13.3309 107.243 13.1869 107.243 13.0249ZM109.085 12.0379H110.275V12.3319H109.435V12.8329H110.145V13.1269H109.435V13.7059H110.305V13.9999H109.085V12.0379Z" fill="white"/>
<path d="M107.278 2.89224C107.254 2.87206 107.22 2.86782 107.192 2.88142L106.762 3.08954L106.358 2.62704C106.343 2.60992 106.322 2.6001 106.299 2.6001C106.276 2.6001 106.254 2.60992 106.239 2.62704L105.836 3.08954L105.405 2.88142C105.377 2.86782 105.344 2.87206 105.32 2.89224C105.296 2.9124 105.287 2.94466 105.296 2.97438L105.594 3.95094C105.605 3.98386 105.635 4.00634 105.67 4.00634H106.928C106.962 4.00634 106.993 3.98386 107.003 3.95096L107.302 2.97438C107.311 2.94466 107.301 2.9124 107.278 2.89224ZM106.87 3.8501H105.728L105.499 3.1003L105.821 3.25628C105.853 3.27176 105.892 3.26394 105.915 3.23722L106.299 2.79746L106.683 3.23722C106.706 3.26396 106.744 3.27176 106.776 3.25628L107.099 3.1003L106.87 3.8501Z" fill="white"/>
<path d="M114.149 20C114.024 19.3774 114.033 19.0387 114.149 18.6C114.446 17.7555 114.81 17.4575 115.558 17C115.653 17.6405 115.624 17.9894 115.458 18.6C115.308 19.0299 115.119 19.2705 114.753 19.7L114.149 20Z" fill="#8C8E98"/>
<path d="M116.46 18.2805C116.17 17.7145 116.086 17.386 116.08 16.9323C116.136 16.0396 116.406 15.6551 117.003 15.0142C117.268 15.6057 117.334 15.9494 117.34 16.5819C117.313 17.0359 117.195 17.3184 116.96 17.8299L116.46 18.2805Z" fill="#8C8E98"/>
<path d="M118.015 15.7177C117.582 15.2512 117.411 14.9578 117.281 14.5229C117.091 13.6486 117.245 13.2058 117.644 12.4277C118.061 12.9254 118.219 13.2381 118.397 13.8453C118.496 14.2895 118.46 14.593 118.373 15.1489L118.015 15.7177Z" fill="#8C8E98"/>
<path d="M119.005 12.9886C118.433 12.7046 118.169 12.4901 117.892 12.1293C117.403 11.3783 117.39 10.9098 117.486 10.042C118.053 10.361 118.312 10.5979 118.695 11.103C118.945 11.4839 119.02 11.7803 119.137 12.3307L119.005 12.9886Z" fill="#8C8E98"/>
<path d="M119.002 10.3861C118.4 10.1736 118.112 9.99267 117.793 9.66813C117.215 8.98205 117.144 8.51873 117.133 7.64575C117.735 7.89355 118.021 8.09721 118.464 8.55207C118.759 8.89989 118.869 9.18495 119.053 9.71711L119.002 10.3861Z" fill="#8C8E98"/>
<path d="M118.506 7.5535C117.868 7.51918 117.54 7.42684 117.141 7.20546C116.391 6.71002 116.191 6.28562 115.931 5.45166C116.579 5.51988 116.912 5.63452 117.466 5.94626C117.848 6.19684 118.036 6.43906 118.363 6.89774L118.506 7.5535Z" fill="#8C8E98"/>
<path d="M117.372 4.94884C116.741 5.0531 116.401 5.0338 115.963 4.90378C115.123 4.582 114.835 4.21094 114.399 3.45302C115.046 3.37972 115.396 3.41974 116.005 3.60446C116.433 3.76656 116.669 3.96252 117.089 4.3395L117.372 4.94884Z" fill="#8C8E98"/>
<path d="M115.531 2.48955C114.893 2.51385 114.557 2.45197 114.14 2.26807C113.348 1.84341 113.109 1.43917 112.773 0.632568C113.424 0.64113 113.766 0.724778 114.347 0.984428C114.76 1.17922 115 1.37026 115.329 1.84963C115.441 2.03205 115.477 2.18953 115.531 2.48955Z" fill="#8C8E98"/>
<path d="M113.988 20.4046C114.495 20.0184 114.805 19.8764 115.253 19.7868C116.146 19.6787 116.576 19.8718 117.319 20.3372C116.783 20.7042 116.455 20.8322 115.83 20.9534C115.158 21.0474 114.835 20.9884 114.526 20.8106C114.276 20.6544 114.156 20.5656 113.988 20.4046Z" fill="#8C8E98"/>
<path d="M116.404 18.6045C116.911 18.2182 117.22 18.0763 117.668 17.9868C118.562 17.8787 118.992 18.0717 119.735 18.5372C119.198 18.9041 118.871 19.0322 118.246 19.1534C117.573 19.2473 117.25 19.1884 116.941 19.0106C116.692 18.8543 116.571 18.7654 116.404 18.6045Z" fill="#8C8E98"/>
<path d="M118.049 16.3323C118.298 15.7475 118.496 15.472 118.841 15.1742C119.564 14.6413 120.033 14.598 120.911 14.6374C120.627 15.22 120.406 15.4925 119.923 15.9047C119.385 16.3166 119.075 16.424 118.718 16.4213C118.424 16.408 118.275 16.3899 118.049 16.3323Z" fill="#8C8E98"/>
<path d="M119.062 13.5457C119.22 12.9304 119.374 12.6283 119.67 12.2824C120.304 11.6475 120.762 11.5344 121.636 11.4421C121.443 12.0606 121.265 12.363 120.85 12.8428C120.381 13.3304 120.091 13.4829 119.737 13.5336C119.444 13.5645 119.294 13.5688 119.062 13.5457Z" fill="#8C8E98"/>
<path d="M119.272 10.8009C119.176 10.1733 119.2 9.83536 119.337 9.40236C119.672 8.57222 120.049 8.29098 120.818 7.86792C120.883 8.51208 120.838 8.8593 120.644 9.46168C120.403 10.0923 120.195 10.345 119.889 10.5286C119.631 10.6705 119.495 10.7325 119.272 10.8009Z" fill="#8C8E98"/>
<path d="M118.98 8.00356C118.75 7.41124 118.7 7.07606 118.74 6.62398C118.888 5.74166 119.196 5.38642 119.855 4.80908C120.058 5.4243 120.089 5.77302 120.03 6.40276C119.931 7.0701 119.783 7.36128 119.524 7.60584C119.303 7.79952 119.183 7.88918 118.98 8.00356Z" fill="#8C8E98"/>
<path d="M118.005 5.33301C117.611 4.83301 117.465 4.52677 117.371 4.08279C117.253 3.19601 117.443 2.76709 117.905 2.02393C118.279 2.55367 118.411 2.87821 118.539 3.49777C118.64 4.16479 118.584 4.48617 118.408 4.79509C118.254 5.04445 118.165 5.16491 118.005 5.33301Z" fill="#8C8E98"/>
<path d="M116.704 3.50232C116.253 3.05322 116.071 2.7667 115.923 2.3373C115.698 1.47111 115.835 1.02253 116.202 0.229492C116.639 0.710428 116.809 1.01674 117.012 1.6164C117.193 2.26642 117.177 2.59218 117.039 2.91996C116.916 3.18604 116.843 3.31622 116.704 3.50232Z" fill="#8C8E98"/>
<path d="M98.7356 20C98.8607 19.3774 98.8523 19.0387 98.7356 18.6C98.4389 17.7555 98.0749 17.4575 97.3265 17C97.2319 17.6405 97.2609 17.9894 97.4271 18.6C97.5764 19.0299 97.766 19.2705 98.1317 19.7L98.7356 20Z" fill="#8C8E98"/>
<path d="M96.4254 18.2805C96.7148 17.7145 96.7986 17.386 96.8052 16.9323C96.7485 16.0396 96.4789 15.6551 95.8823 15.0142C95.6174 15.6057 95.5507 15.9494 95.5452 16.5819C95.5723 17.0359 95.6896 17.3184 95.9252 17.8299L96.4254 18.2805Z" fill="#8C8E98"/>
<path d="M94.8698 15.7177C95.3033 15.2512 95.4738 14.9578 95.6044 14.5229C95.7943 13.6486 95.64 13.2058 95.2414 12.4277C94.8246 12.9254 94.6663 13.2381 94.4877 13.8453C94.3896 14.2895 94.4251 14.593 94.5118 15.1489L94.8698 15.7177Z" fill="#8C8E98"/>
<path d="M93.8805 12.9886C94.4521 12.7046 94.716 12.4901 94.993 12.1293C95.482 11.3783 95.4954 10.9098 95.3996 10.042C94.8325 10.361 94.5731 10.5979 94.19 11.103C93.94 11.4839 93.8651 11.7803 93.7483 12.3307L93.8805 12.9886Z" fill="#8C8E98"/>
<path d="M93.8825 10.3861C94.4846 10.1736 94.7729 9.99267 95.0922 9.66813C95.6697 8.98205 95.7406 8.51873 95.7522 7.64575C95.1502 7.89355 94.8636 8.09721 94.4212 8.55207C94.1263 8.89989 94.0156 9.18495 93.832 9.71711L93.8825 10.3861Z" fill="#8C8E98"/>
<path d="M94.3792 7.5535C95.0172 7.51918 95.3453 7.42684 95.744 7.20546C96.4935 6.71002 96.6936 6.28562 96.9536 5.45166C96.3056 5.51988 95.9727 5.63452 95.4187 5.94626C95.0367 6.19684 94.8493 6.43906 94.5215 6.89774L94.3792 7.5535Z" fill="#8C8E98"/>
<path d="M95.5134 4.94884C96.1437 5.0531 96.4842 5.0338 96.9218 4.90378C97.7618 4.582 98.0499 4.21094 98.486 3.45302C97.8386 3.37972 97.4885 3.41974 96.8797 3.60446C96.452 3.76656 96.216 3.96252 95.7958 4.3395L95.5134 4.94884Z" fill="#8C8E98"/>
<path d="M97.3538 2.48955C97.9923 2.51385 98.3275 2.45197 98.7451 2.26807C99.5374 1.84341 99.776 1.43917 100.112 0.632568C99.4607 0.64113 99.1186 0.724778 98.5381 0.984428C98.1249 1.17922 97.8844 1.37026 97.5564 1.84963C97.4435 2.03205 97.4078 2.18953 97.3538 2.48955Z" fill="#8C8E98"/>
<path d="M98.8968 20.4046C98.3898 20.0184 98.0801 19.8764 97.6323 19.7868C96.7387 19.6787 96.3089 19.8718 95.5654 20.3372C96.1023 20.7042 96.4302 20.8322 97.055 20.9534C97.7273 21.0474 98.0502 20.9884 98.3594 20.8106C98.6088 20.6544 98.7292 20.5656 98.8968 20.4046Z" fill="#8C8E98"/>
<path d="M96.4813 18.6045C95.9742 18.2182 95.6646 18.0763 95.2168 17.9868C94.3232 17.8787 93.8933 18.0717 93.1499 18.5372C93.6867 18.9041 94.0147 19.0322 94.6395 19.1534C95.3118 19.2473 95.6347 19.1884 95.9439 19.0106C96.1933 18.8543 96.3137 18.7654 96.4813 18.6045Z" fill="#8C8E98"/>
<path d="M94.8359 16.3323C94.5873 15.7475 94.3888 15.472 94.0441 15.1742C93.3211 14.6413 92.8515 14.598 91.9736 14.6374C92.2577 15.22 92.479 15.4925 92.9618 15.9047C93.4994 16.3166 93.8094 16.424 94.1667 16.4213C94.4612 16.408 94.6101 16.3899 94.8359 16.3323Z" fill="#8C8E98"/>
<path d="M93.8225 13.5457C93.6653 12.9304 93.5108 12.6283 93.2151 12.2824C92.5811 11.6475 92.1233 11.5344 91.2495 11.4421C91.4421 12.0606 91.6196 12.363 92.0345 12.8428C92.5036 13.3304 92.7938 13.4829 93.1474 13.5336C93.4406 13.5645 93.5906 13.5688 93.8225 13.5457Z" fill="#8C8E98"/>
<path d="M93.6124 10.8009C93.7088 10.1733 93.6848 9.83536 93.5481 9.40236C93.2129 8.57222 92.8356 8.29098 92.067 7.86792C92.0019 8.51208 92.0469 8.8593 92.241 9.46168C92.482 10.0923 92.6895 10.345 92.9953 10.5286C93.2533 10.6705 93.3897 10.7325 93.6124 10.8009Z" fill="#8C8E98"/>
<path d="M93.9052 8.00356C94.1351 7.41124 94.1848 7.07606 94.145 6.62398C93.9972 5.74166 93.6896 5.38642 93.0304 4.80908C92.8275 5.4243 92.7964 5.77302 92.8556 6.40276C92.9545 7.0701 93.1025 7.36128 93.3615 7.60584C93.5827 7.79952 93.7025 7.88918 93.9052 8.00356Z" fill="#8C8E98"/>
<path d="M94.8801 5.33301C95.2739 4.83301 95.4197 4.52677 95.5142 4.08279C95.6318 3.19601 95.4417 2.76709 94.9806 2.02393C94.606 2.55367 94.4739 2.87821 94.3457 3.49777C94.2446 4.16479 94.3008 4.48617 94.4767 4.79509C94.6315 5.04445 94.7198 5.16491 94.8801 5.33301Z" fill="#8C8E98"/>
<path d="M96.1805 3.50232C96.6321 3.05322 96.8141 2.7667 96.9619 2.3373C97.1863 1.47111 97.0498 1.02253 96.6823 0.229492C96.2461 0.710428 96.0755 1.01674 95.8731 1.6164C95.6916 2.26642 95.7083 2.59218 95.8454 2.91996C95.9688 3.18604 96.0418 3.31622 96.1805 3.50232Z" fill="#8C8E98"/>
<path d="M149.078 16.08L149.45 16.35L149.31 15.91L149.682 15.65H149.229L149.078 15.2L148.927 15.65H148.474L148.847 15.91L148.706 16.35L149.078 16.08Z" fill="white"/>
<path d="M150.688 16.08L151.061 16.35L150.92 15.91L151.292 15.65H150.839L150.688 15.2L150.537 15.65H150.084L150.457 15.91L150.316 16.35L150.688 16.08Z" fill="white"/>
<path d="M152.299 16.08L152.671 16.35L152.53 15.91L152.903 15.65H152.45L152.299 15.2L152.148 15.65H151.695L152.067 15.91L151.926 16.35L152.299 16.08Z" fill="white"/>
<path d="M153.909 16.08L154.281 16.35L154.141 15.91L154.513 15.65H154.06L153.909 15.2L153.758 15.65H153.305L153.678 15.91L153.537 16.35L153.909 16.08Z" fill="white"/>
<path d="M155.519 16.08L155.892 16.35L155.751 15.91L156.123 15.65H155.67L155.519 15.2L155.368 15.65H154.916L155.288 15.91L155.147 16.35L155.519 16.08Z" fill="white"/>
<path d="M150.361 19.0001V18.9119C150.448 18.8255 150.525 18.7475 150.593 18.6779C150.66 18.6083 150.717 18.5441 150.763 18.4853C150.809 18.4253 150.844 18.3707 150.868 18.3215C150.892 18.2711 150.904 18.2225 150.904 18.1757C150.904 18.1097 150.886 18.0557 150.85 18.0137C150.814 17.9717 150.759 17.9507 150.685 17.9507C150.637 17.9507 150.592 17.9645 150.551 17.9921C150.51 18.0185 150.472 18.0509 150.439 18.0893L150.354 18.0047C150.402 17.9519 150.453 17.9099 150.508 17.8787C150.562 17.8463 150.627 17.8301 150.703 17.8301C150.811 17.8301 150.895 17.8613 150.957 17.9237C151.018 17.9849 151.049 18.0665 151.049 18.1685C151.049 18.2225 151.037 18.2771 151.013 18.3323C150.99 18.3863 150.957 18.4427 150.915 18.5015C150.874 18.5591 150.825 18.6197 150.767 18.6833C150.71 18.7457 150.647 18.8123 150.578 18.8831C150.61 18.8807 150.642 18.8783 150.676 18.8759C150.71 18.8735 150.742 18.8723 150.772 18.8723H151.107V19.0001H150.361ZM151.712 19.0217C151.595 19.0217 151.504 18.9701 151.439 18.8669C151.374 18.7637 151.341 18.6155 151.341 18.4223C151.341 18.2291 151.374 18.0821 151.439 17.9813C151.504 17.8805 151.595 17.8301 151.712 17.8301C151.828 17.8301 151.919 17.8805 151.984 17.9813C152.049 18.0821 152.082 18.2291 152.082 18.4223C152.082 18.6155 152.049 18.7637 151.984 18.8669C151.919 18.9701 151.828 19.0217 151.712 19.0217ZM151.712 18.9029C151.746 18.9029 151.776 18.8939 151.803 18.8759C151.831 18.8567 151.854 18.8279 151.874 18.7895C151.894 18.7499 151.91 18.7001 151.921 18.6401C151.932 18.5789 151.937 18.5063 151.937 18.4223C151.937 18.3383 151.932 18.2663 151.921 18.2063C151.91 18.1463 151.894 18.0977 151.874 18.0605C151.854 18.0221 151.831 17.9939 151.803 17.9759C151.776 17.9579 151.746 17.9489 151.712 17.9489C151.679 17.9489 151.648 17.9579 151.62 17.9759C151.592 17.9939 151.568 18.0221 151.548 18.0605C151.528 18.0977 151.513 18.1463 151.502 18.2063C151.491 18.2663 151.486 18.3383 151.486 18.4223C151.486 18.5903 151.506 18.7127 151.548 18.7895C151.59 18.8651 151.645 18.9029 151.712 18.9029ZM152.377 19.0001V18.8777H152.642V18.0317H152.432V17.9363C152.485 17.9267 152.531 17.9153 152.569 17.9021C152.609 17.8877 152.645 17.8709 152.676 17.8517H152.79V18.8777H153.03V19.0001H152.377ZM153.633 18.4421C153.672 18.4421 153.712 18.4301 153.754 18.4061C153.798 18.3821 153.838 18.3431 153.876 18.2891C153.866 18.1763 153.84 18.0911 153.796 18.0335C153.753 17.9759 153.694 17.9471 153.62 17.9471C153.593 17.9471 153.566 17.9531 153.541 17.9651C153.517 17.9771 153.495 17.9945 153.477 18.0173C153.459 18.0389 153.445 18.0653 153.434 18.0965C153.424 18.1277 153.419 18.1619 153.419 18.1991C153.419 18.2747 153.437 18.3341 153.472 18.3773C153.507 18.4205 153.561 18.4421 153.633 18.4421ZM153.579 19.0217C153.517 19.0217 153.463 19.0103 153.416 18.9875C153.37 18.9647 153.331 18.9359 153.3 18.9011L153.383 18.8075C153.407 18.8351 153.436 18.8573 153.468 18.8741C153.502 18.8909 153.537 18.8993 153.573 18.8993C153.614 18.8993 153.653 18.8909 153.689 18.8741C153.725 18.8573 153.757 18.8297 153.785 18.7913C153.813 18.7517 153.835 18.7007 153.852 18.6383C153.869 18.5759 153.878 18.4985 153.879 18.4061C153.843 18.4517 153.801 18.4877 153.753 18.5141C153.704 18.5405 153.656 18.5537 153.608 18.5537C153.507 18.5537 153.428 18.5243 153.369 18.4655C153.309 18.4067 153.28 18.3179 153.28 18.1991C153.28 18.1439 153.289 18.0941 153.307 18.0497C153.325 18.0041 153.349 17.9651 153.379 17.9327C153.411 17.9003 153.447 17.8751 153.488 17.8571C153.53 17.8391 153.574 17.8301 153.62 17.8301C153.677 17.8301 153.73 17.8415 153.778 17.8643C153.828 17.8871 153.87 17.9219 153.905 17.9687C153.941 18.0143 153.969 18.0719 153.988 18.1415C154.009 18.2099 154.019 18.2903 154.019 18.3827C154.019 18.4979 154.007 18.5963 153.983 18.6779C153.959 18.7583 153.926 18.8243 153.885 18.8759C153.844 18.9263 153.797 18.9635 153.744 18.9875C153.692 19.0103 153.637 19.0217 153.579 19.0217Z" fill="white"/>
<path d="M149.219 5.2379H149.85C149.952 5.2379 150.046 5.2469 150.131 5.2649C150.217 5.2809 150.292 5.3079 150.354 5.3459C150.418 5.3819 150.468 5.4309 150.502 5.4929C150.538 5.5549 150.556 5.6309 150.556 5.7209C150.556 5.8149 150.528 5.9019 150.472 5.9819C150.417 6.0619 150.333 6.1169 150.218 6.1469V6.1589C150.361 6.1829 150.47 6.2339 150.544 6.3119C150.621 6.3879 150.659 6.4919 150.659 6.6239C150.659 6.7219 150.64 6.8069 150.602 6.8789C150.563 6.9509 150.51 7.0109 150.442 7.0589C150.375 7.1069 150.296 7.1429 150.203 7.1669C150.11 7.1889 150.01 7.1999 149.901 7.1999H149.219V5.2379ZM149.82 6.0509C149.958 6.0509 150.058 6.0259 150.119 5.9759C150.181 5.9259 150.212 5.8549 150.212 5.7629C150.212 5.6729 150.18 5.6079 150.116 5.5679C150.051 5.5279 149.954 5.5079 149.826 5.5079H149.569V6.0509H149.82ZM149.865 6.9299C150.01 6.9299 150.122 6.9029 150.2 6.8489C150.279 6.7949 150.318 6.7119 150.318 6.5999C150.318 6.4979 150.28 6.4229 150.203 6.3749C150.127 6.3249 150.014 6.2999 149.865 6.2999H149.569V6.9299H149.865ZM151.02 5.2379H152.21V5.5319H151.371V6.0329H152.08V6.3269H151.371V6.9059H152.24V7.1999H151.02V5.2379ZM152.715 6.7109C152.785 6.7769 152.866 6.8309 152.956 6.8729C153.047 6.9129 153.137 6.9329 153.228 6.9329C153.341 6.9329 153.426 6.9099 153.485 6.8639C153.543 6.8179 153.572 6.7569 153.572 6.6809C153.572 6.6409 153.564 6.6069 153.548 6.5789C153.534 6.5509 153.513 6.5269 153.485 6.5069C153.458 6.4849 153.426 6.4649 153.388 6.4469C153.352 6.4289 153.311 6.4109 153.267 6.3929L152.995 6.2759C152.947 6.2559 152.899 6.2309 152.85 6.2009C152.804 6.1709 152.762 6.1349 152.724 6.0929C152.685 6.0509 152.654 6.0019 152.63 5.9459C152.608 5.8899 152.597 5.8259 152.597 5.7539C152.597 5.6759 152.613 5.6039 152.645 5.5379C152.679 5.4699 152.726 5.4109 152.784 5.3609C152.842 5.3109 152.912 5.2719 152.992 5.2439C153.075 5.2159 153.164 5.2019 153.261 5.2019C153.376 5.2019 153.487 5.2249 153.593 5.2709C153.7 5.3149 153.792 5.3749 153.868 5.4509L153.69 5.6729C153.625 5.6209 153.559 5.5799 153.491 5.5499C153.422 5.5199 153.346 5.5049 153.261 5.5049C153.166 5.5049 153.091 5.5259 153.035 5.5679C152.978 5.6079 152.95 5.6639 152.95 5.7359C152.95 5.7739 152.958 5.8069 152.974 5.8349C152.992 5.8609 153.016 5.8849 153.044 5.9069C153.074 5.9269 153.108 5.9459 153.146 5.9639C153.185 5.9799 153.224 5.9959 153.264 6.0119L153.533 6.1229C153.591 6.1469 153.645 6.1749 153.693 6.2069C153.741 6.2389 153.782 6.2759 153.817 6.3179C153.853 6.3599 153.881 6.4089 153.901 6.4649C153.921 6.5189 153.931 6.5819 153.931 6.6539C153.931 6.7339 153.915 6.8089 153.883 6.8789C153.851 6.9489 153.804 7.0109 153.741 7.0649C153.681 7.1169 153.606 7.1589 153.518 7.1909C153.431 7.2209 153.333 7.2359 153.222 7.2359C153.089 7.2359 152.96 7.2109 152.835 7.1609C152.713 7.1109 152.604 7.0399 152.509 6.9479L152.715 6.7109ZM154.63 5.5319H154.059V5.2379H155.551V5.5319H154.98V7.1999H154.63V5.5319ZM147.141 8.6379H147.528L147.884 9.6039L148.014 9.9759H148.026L148.153 9.6039L148.503 8.6379H148.89V10.5999H148.561V9.7029C148.561 9.6569 148.562 9.6069 148.564 9.5529C148.568 9.4989 148.572 9.4449 148.576 9.3909C148.58 9.3349 148.585 9.2809 148.591 9.2289C148.597 9.1749 148.602 9.1249 148.606 9.0789H148.594L148.434 9.5259L148.092 10.4169H147.929L147.588 9.5259L147.431 9.0789H147.419C147.423 9.1249 147.427 9.1749 147.431 9.2289C147.437 9.2809 147.442 9.3349 147.446 9.3909C147.452 9.4449 147.456 9.4989 147.458 9.5529C147.462 9.6069 147.464 9.6569 147.464 9.7029V10.5999H147.141V8.6379ZM150.231 9.7959L150.161 9.5559C150.129 9.4519 150.098 9.3449 150.068 9.2349C150.039 9.1249 150.011 9.0159 149.983 8.9079H149.971C149.943 9.0179 149.915 9.1279 149.886 9.2379C149.858 9.3459 149.828 9.4519 149.796 9.5559L149.726 9.7959H150.231ZM150.309 10.0689H149.645L149.491 10.5999H149.135L149.778 8.6379H150.188L150.832 10.5999H150.463L150.309 10.0689ZM151.425 9.5559H151.706C151.841 9.5559 151.944 9.5279 152.014 9.4719C152.086 9.4159 152.123 9.3319 152.123 9.2199C152.123 9.1059 152.086 9.0269 152.014 8.9829C151.944 8.9389 151.841 8.9169 151.706 8.9169H151.425V9.5559ZM152.153 10.5999L151.727 9.8319H151.425V10.5999H151.075V8.6379H151.742C151.845 8.6379 151.941 8.6479 152.029 8.6679C152.118 8.6879 152.194 8.7209 152.259 8.7669C152.323 8.8109 152.373 8.8699 152.41 8.9439C152.448 9.0179 152.467 9.1099 152.467 9.2199C152.467 9.3699 152.431 9.4909 152.358 9.5829C152.288 9.6749 152.193 9.7409 152.074 9.7809L152.545 10.5999H152.153ZM152.882 8.6379H153.233V9.5289H153.242L153.945 8.6379H154.335L153.728 9.4029L154.438 10.5999H154.051L153.517 9.6759L153.233 10.0269V10.5999H152.882V8.6379ZM154.684 8.6379H155.874V8.9319H155.034V9.4329H155.744V9.7269H155.034V10.3059H155.904V10.5999H154.684V8.6379ZM156.707 8.9319H156.137V8.6379H157.628V8.9319H157.058V10.5999H156.707V8.9319ZM148.389 12.0379H149.053C149.162 12.0379 149.261 12.0479 149.352 12.0679C149.444 12.0879 149.524 12.1219 149.59 12.1699C149.657 12.2179 149.709 12.2809 149.747 12.3589C149.786 12.4349 149.805 12.5299 149.805 12.6439C149.805 12.7519 149.786 12.8459 149.747 12.9259C149.709 13.0059 149.656 13.0729 149.587 13.1269C149.521 13.1789 149.441 13.2179 149.349 13.2439C149.258 13.2679 149.16 13.2799 149.053 13.2799H148.739V13.9999H148.389V12.0379ZM149.026 13.0009C149.316 13.0009 149.461 12.8819 149.461 12.6439C149.461 12.5199 149.424 12.4349 149.352 12.3889C149.279 12.3409 149.171 12.3169 149.026 12.3169H148.739V13.0009H149.026ZM150.176 12.0379H150.526V13.7059H151.347V13.9999H150.176V12.0379ZM152.531 13.1959L152.461 12.9559C152.429 12.8519 152.398 12.7449 152.368 12.6349C152.339 12.5249 152.311 12.4159 152.283 12.3079H152.271C152.243 12.4179 152.215 12.5279 152.186 12.6379C152.158 12.7459 152.128 12.8519 152.096 12.9559L152.026 13.1959H152.531ZM152.609 13.4689H151.945L151.791 13.9999H151.435L152.078 12.0379H152.488L153.132 13.9999H152.763L152.609 13.4689ZM153.243 13.0249C153.243 12.8649 153.266 12.7219 153.312 12.5959C153.361 12.4679 153.426 12.3599 153.508 12.2719C153.591 12.1839 153.688 12.1169 153.798 12.0709C153.909 12.0249 154.028 12.0019 154.155 12.0019C154.275 12.0019 154.383 12.0269 154.478 12.0769C154.574 12.1269 154.654 12.1849 154.716 12.2509L154.52 12.4669C154.47 12.4169 154.415 12.3779 154.357 12.3499C154.301 12.3199 154.234 12.3049 154.158 12.3049C154.075 12.3049 154 12.3219 153.931 12.3559C153.865 12.3879 153.806 12.4349 153.756 12.4969C153.708 12.5569 153.67 12.6309 153.641 12.7189C153.615 12.8069 153.602 12.9059 153.602 13.0159C153.602 13.2399 153.65 13.4159 153.747 13.5439C153.846 13.6699 153.979 13.7329 154.146 13.7329C154.234 13.7329 154.311 13.7159 154.375 13.6819C154.442 13.6479 154.503 13.5999 154.559 13.5379L154.756 13.7509C154.675 13.8429 154.583 13.9139 154.481 13.9639C154.378 14.0119 154.264 14.0359 154.14 14.0359C154.013 14.0359 153.895 14.0139 153.786 13.9699C153.678 13.9259 153.583 13.8609 153.502 13.7749C153.422 13.6889 153.359 13.5829 153.312 13.4569C153.266 13.3309 153.243 13.1869 153.243 13.0249ZM155.085 12.0379H156.275V12.3319H155.435V12.8329H156.145V13.1269H155.435V13.7059H156.305V13.9999H155.085V12.0379Z" fill="white"/>
<path d="M153.278 2.89224C153.254 2.87206 153.22 2.86782 153.192 2.88142L152.762 3.08954L152.358 2.62704C152.343 2.60992 152.322 2.6001 152.299 2.6001C152.276 2.6001 152.254 2.60992 152.239 2.62704L151.836 3.08954L151.405 2.88142C151.377 2.86782 151.344 2.87206 151.32 2.89224C151.296 2.9124 151.287 2.94466 151.296 2.97438L151.594 3.95094C151.605 3.98386 151.635 4.00634 151.67 4.00634H152.928C152.962 4.00634 152.993 3.98386 153.003 3.95096L153.302 2.97438C153.311 2.94466 153.301 2.9124 153.278 2.89224ZM152.87 3.8501H151.728L151.499 3.1003L151.821 3.25628C151.853 3.27176 151.892 3.26394 151.915 3.23722L152.299 2.79746L152.683 3.23722C152.706 3.26396 152.744 3.27176 152.776 3.25628L153.099 3.1003L152.87 3.8501Z" fill="white"/>
<path d="M160.149 20C160.024 19.3774 160.033 19.0387 160.149 18.6C160.446 17.7555 160.81 17.4575 161.558 17C161.653 17.6405 161.624 17.9894 161.458 18.6C161.308 19.0299 161.119 19.2705 160.753 19.7L160.149 20Z" fill="#BA7E3B"/>
<path d="M162.46 18.2805C162.17 17.7145 162.086 17.386 162.08 16.9323C162.136 16.0396 162.406 15.6551 163.003 15.0142C163.268 15.6057 163.334 15.9494 163.34 16.5819C163.313 17.0359 163.195 17.3184 162.96 17.8299L162.46 18.2805Z" fill="#BA7E3B"/>
<path d="M164.015 15.7177C163.582 15.2512 163.411 14.9578 163.281 14.5229C163.091 13.6486 163.245 13.2058 163.644 12.4277C164.061 12.9254 164.219 13.2381 164.397 13.8453C164.496 14.2895 164.46 14.593 164.373 15.1489L164.015 15.7177Z" fill="#BA7E3B"/>
<path d="M165.005 12.9886C164.433 12.7046 164.169 12.4901 163.892 12.1293C163.403 11.3783 163.39 10.9098 163.486 10.042C164.053 10.361 164.312 10.5979 164.695 11.103C164.945 11.4839 165.02 11.7803 165.137 12.3307L165.005 12.9886Z" fill="#BA7E3B"/>
<path d="M165.002 10.3861C164.4 10.1736 164.112 9.99267 163.793 9.66813C163.215 8.98205 163.144 8.51873 163.133 7.64575C163.735 7.89355 164.021 8.09721 164.464 8.55207C164.759 8.89989 164.869 9.18495 165.053 9.71711L165.002 10.3861Z" fill="#BA7E3B"/>
<path d="M164.506 7.5535C163.868 7.51918 163.54 7.42684 163.141 7.20546C162.391 6.71002 162.191 6.28562 161.931 5.45166C162.579 5.51988 162.912 5.63452 163.466 5.94626C163.848 6.19684 164.036 6.43906 164.363 6.89774L164.506 7.5535Z" fill="#BA7E3B"/>
<path d="M163.372 4.94884C162.741 5.0531 162.401 5.0338 161.963 4.90378C161.123 4.582 160.835 4.21094 160.399 3.45302C161.046 3.37972 161.396 3.41974 162.005 3.60446C162.433 3.76656 162.669 3.96252 163.089 4.3395L163.372 4.94884Z" fill="#BA7E3B"/>
<path d="M161.531 2.48955C160.893 2.51385 160.557 2.45197 160.14 2.26807C159.348 1.84341 159.109 1.43917 158.773 0.632568C159.424 0.64113 159.766 0.724778 160.347 0.984428C160.76 1.17922 161 1.37026 161.329 1.84963C161.441 2.03205 161.477 2.18953 161.531 2.48955Z" fill="#BA7E3B"/>
<path d="M159.988 20.4046C160.495 20.0184 160.805 19.8764 161.253 19.7868C162.146 19.6787 162.576 19.8718 163.319 20.3372C162.783 20.7042 162.455 20.8322 161.83 20.9534C161.158 21.0474 160.835 20.9884 160.526 20.8106C160.276 20.6544 160.156 20.5656 159.988 20.4046Z" fill="#BA7E3B"/>
<path d="M162.404 18.6045C162.911 18.2182 163.22 18.0763 163.668 17.9868C164.562 17.8787 164.992 18.0717 165.735 18.5372C165.198 18.9041 164.871 19.0322 164.246 19.1534C163.573 19.2473 163.25 19.1884 162.941 19.0106C162.692 18.8543 162.571 18.7654 162.404 18.6045Z" fill="#BA7E3B"/>
<path d="M164.049 16.3323C164.298 15.7475 164.496 15.472 164.841 15.1742C165.564 14.6413 166.033 14.598 166.911 14.6374C166.627 15.22 166.406 15.4925 165.923 15.9047C165.385 16.3166 165.075 16.424 164.718 16.4213C164.424 16.408 164.275 16.3899 164.049 16.3323Z" fill="#BA7E3B"/>
<path d="M165.062 13.5457C165.22 12.9304 165.374 12.6283 165.67 12.2824C166.304 11.6475 166.762 11.5344 167.636 11.4421C167.443 12.0606 167.265 12.363 166.85 12.8428C166.381 13.3304 166.091 13.4829 165.737 13.5336C165.444 13.5645 165.294 13.5688 165.062 13.5457Z" fill="#BA7E3B"/>
<path d="M165.272 10.8009C165.176 10.1733 165.2 9.83536 165.337 9.40236C165.672 8.57222 166.049 8.29098 166.818 7.86792C166.883 8.51208 166.838 8.8593 166.644 9.46168C166.403 10.0923 166.195 10.345 165.889 10.5286C165.631 10.6705 165.495 10.7325 165.272 10.8009Z" fill="#BA7E3B"/>
<path d="M164.98 8.00356C164.75 7.41124 164.7 7.07606 164.74 6.62398C164.888 5.74166 165.196 5.38642 165.855 4.80908C166.058 5.4243 166.089 5.77302 166.03 6.40276C165.931 7.0701 165.783 7.36128 165.524 7.60584C165.303 7.79952 165.183 7.88918 164.98 8.00356Z" fill="#BA7E3B"/>
<path d="M164.005 5.33301C163.611 4.83301 163.465 4.52677 163.371 4.08279C163.253 3.19601 163.443 2.76709 163.905 2.02393C164.279 2.55367 164.411 2.87821 164.539 3.49777C164.64 4.16479 164.584 4.48617 164.408 4.79509C164.254 5.04445 164.165 5.16491 164.005 5.33301Z" fill="#BA7E3B"/>
<path d="M162.704 3.50232C162.253 3.05322 162.071 2.7667 161.923 2.3373C161.698 1.47111 161.835 1.02253 162.202 0.229492C162.639 0.710428 162.809 1.01674 163.012 1.6164C163.193 2.26642 163.177 2.59218 163.039 2.91996C162.916 3.18604 162.843 3.31622 162.704 3.50232Z" fill="#BA7E3B"/>
<path d="M144.736 20C144.861 19.3774 144.852 19.0387 144.736 18.6C144.439 17.7555 144.075 17.4575 143.326 17C143.232 17.6405 143.261 17.9894 143.427 18.6C143.576 19.0299 143.766 19.2705 144.132 19.7L144.736 20Z" fill="#BA7E3B"/>
<path d="M142.425 18.2805C142.715 17.7145 142.799 17.386 142.805 16.9323C142.749 16.0396 142.479 15.6551 141.882 15.0142C141.617 15.6057 141.551 15.9494 141.545 16.5819C141.572 17.0359 141.69 17.3184 141.925 17.8299L142.425 18.2805Z" fill="#BA7E3B"/>
<path d="M140.87 15.7177C141.303 15.2512 141.474 14.9578 141.604 14.5229C141.794 13.6486 141.64 13.2058 141.241 12.4277C140.825 12.9254 140.666 13.2381 140.488 13.8453C140.39 14.2895 140.425 14.593 140.512 15.1489L140.87 15.7177Z" fill="#BA7E3B"/>
<path d="M139.881 12.9886C140.452 12.7046 140.716 12.4901 140.993 12.1293C141.482 11.3783 141.495 10.9098 141.4 10.042C140.833 10.361 140.573 10.5979 140.19 11.103C139.94 11.4839 139.865 11.7803 139.748 12.3307L139.881 12.9886Z" fill="#BA7E3B"/>
<path d="M139.882 10.3861C140.485 10.1736 140.773 9.99267 141.092 9.66813C141.67 8.98205 141.741 8.51873 141.752 7.64575C141.15 7.89355 140.864 8.09721 140.421 8.55207C140.126 8.89989 140.016 9.18495 139.832 9.71711L139.882 10.3861Z" fill="#BA7E3B"/>
<path d="M140.379 7.5535C141.017 7.51918 141.345 7.42684 141.744 7.20546C142.494 6.71002 142.694 6.28562 142.954 5.45166C142.306 5.51988 141.973 5.63452 141.419 5.94626C141.037 6.19684 140.849 6.43906 140.522 6.89774L140.379 7.5535Z" fill="#BA7E3B"/>
<path d="M141.513 4.94884C142.144 5.0531 142.484 5.0338 142.922 4.90378C143.762 4.582 144.05 4.21094 144.486 3.45302C143.839 3.37972 143.489 3.41974 142.88 3.60446C142.452 3.76656 142.216 3.96252 141.796 4.3395L141.513 4.94884Z" fill="#BA7E3B"/>
<path d="M143.354 2.48955C143.992 2.51385 144.328 2.45197 144.745 2.26807C145.537 1.84341 145.776 1.43917 146.112 0.632568C145.461 0.64113 145.119 0.724778 144.538 0.984428C144.125 1.17922 143.884 1.37026 143.556 1.84963C143.444 2.03205 143.408 2.18953 143.354 2.48955Z" fill="#BA7E3B"/>
<path d="M144.897 20.4046C144.39 20.0184 144.08 19.8764 143.632 19.7868C142.739 19.6787 142.309 19.8718 141.565 20.3372C142.102 20.7042 142.43 20.8322 143.055 20.9534C143.727 21.0474 144.05 20.9884 144.359 20.8106C144.609 20.6544 144.729 20.5656 144.897 20.4046Z" fill="#BA7E3B"/>
<path d="M142.481 18.6045C141.974 18.2182 141.665 18.0763 141.217 17.9868C140.323 17.8787 139.893 18.0717 139.15 18.5372C139.687 18.9041 140.015 19.0322 140.639 19.1534C141.312 19.2473 141.635 19.1884 141.944 19.0106C142.193 18.8543 142.314 18.7654 142.481 18.6045Z" fill="#BA7E3B"/>
<path d="M140.836 16.3323C140.587 15.7475 140.389 15.472 140.044 15.1742C139.321 14.6413 138.851 14.598 137.974 14.6374C138.258 15.22 138.479 15.4925 138.962 15.9047C139.499 16.3166 139.809 16.424 140.167 16.4213C140.461 16.408 140.61 16.3899 140.836 16.3323Z" fill="#BA7E3B"/>
<path d="M139.822 13.5457C139.665 12.9304 139.511 12.6283 139.215 12.2824C138.581 11.6475 138.123 11.5344 137.25 11.4421C137.442 12.0606 137.62 12.363 138.034 12.8428C138.504 13.3304 138.794 13.4829 139.147 13.5336C139.441 13.5645 139.591 13.5688 139.822 13.5457Z" fill="#BA7E3B"/>
<path d="M139.612 10.8009C139.709 10.1733 139.685 9.83536 139.548 9.40236C139.213 8.57222 138.836 8.29098 138.067 7.86792C138.002 8.51208 138.047 8.8593 138.241 9.46168C138.482 10.0923 138.69 10.345 138.995 10.5286C139.253 10.6705 139.39 10.7325 139.612 10.8009Z" fill="#BA7E3B"/>
<path d="M139.905 8.00356C140.135 7.41124 140.185 7.07606 140.145 6.62398C139.997 5.74166 139.69 5.38642 139.03 4.80908C138.828 5.4243 138.796 5.77302 138.856 6.40276C138.955 7.0701 139.103 7.36128 139.361 7.60584C139.583 7.79952 139.702 7.88918 139.905 8.00356Z" fill="#BA7E3B"/>
<path d="M140.88 5.33301C141.274 4.83301 141.42 4.52677 141.514 4.08279C141.632 3.19601 141.442 2.76709 140.981 2.02393C140.606 2.55367 140.474 2.87821 140.346 3.49777C140.245 4.16479 140.301 4.48617 140.477 4.79509C140.632 5.04445 140.72 5.16491 140.88 5.33301Z" fill="#BA7E3B"/>
<path d="M142.181 3.50232C142.632 3.05322 142.814 2.7667 142.962 2.3373C143.186 1.47111 143.05 1.02253 142.682 0.229492C142.246 0.710428 142.076 1.01674 141.873 1.6164C141.692 2.26642 141.708 2.59218 141.845 2.91996C141.969 3.18604 142.042 3.31622 142.181 3.50232Z" fill="#BA7E3B"/>
</svg>
